<svg xmlns="http://www.w3.org/2000/svg" width="341" height="264" viewBox="0 0 341 264" fill="none">
<g clip-path="url(#clip0_5_1123)">
<path d="M103.218 101.795C101.393 99.4653 98.8142 97.3099 98.6508 94.4354C98.5011 91.799 100.497 89.1814 99.655 86.6591C99.0079 84.7197 96.8732 83.5495 94.7873 82.9298C90.7936 81.7605 86.5199 81.9226 82.6294 83.391L82.8405 83.2442C80.466 82.4109 77.6903 83.2712 75.8221 84.8646C73.9537 86.4579 72.8434 88.6665 71.9819 90.8798C71.1203 93.093 70.4527 95.3872 69.2557 97.4621C68.0584 99.5371 66.2255 101.424 63.8071 102.141C64.6167 103.732 67.1476 104.278 68.6319 103.182C69.0111 102.878 69.352 102.531 69.6472 102.148C70.6371 100.962 71.6271 99.7757 72.6172 98.5898C73.6358 100.375 72.114 102.838 73.3661 104.491C74.0118 105.343 75.191 105.666 76.2862 105.898C84.8459 107.698 93.7254 107.373 102.126 104.954C102.802 104.758 103.546 104.488 103.827 103.886C104.15 103.191 103.698 102.407 103.218 101.795Z" fill="#2F2E41"/>
<path d="M127.488 110.886C127.435 111.117 127.4 111.352 127.384 111.589L108.675 122.223L104.128 119.643L99.2798 125.896L106.88 131.233C107.494 131.664 108.233 131.887 108.987 131.869C109.741 131.851 110.468 131.593 111.06 131.132L130.352 116.138C131.223 116.456 132.171 116.504 133.071 116.278C133.97 116.052 134.778 115.561 135.388 114.871C135.997 114.181 136.379 113.325 136.483 112.416C136.586 111.507 136.406 110.588 135.967 109.783C135.528 108.977 134.85 108.322 134.023 107.905C133.197 107.488 132.261 107.329 131.341 107.449C130.421 107.568 129.559 107.961 128.871 108.575C128.183 109.189 127.7 109.995 127.488 110.886H127.488Z" fill="#FFB7B7"/>
<path d="M108.05 122.726L102.003 130.447C101.831 130.667 101.613 130.847 101.364 130.977C101.114 131.106 100.84 131.18 100.558 131.196C100.277 131.211 99.996 131.166 99.7339 131.064C99.4718 130.963 99.235 130.807 99.0396 130.607L92.1943 123.604C91.0583 122.73 90.3202 121.449 90.1419 120.04C89.9637 118.631 90.3598 117.21 91.2435 116.088C92.1272 114.967 93.4263 114.236 94.8558 114.057C96.2854 113.878 97.7288 114.264 98.8695 115.132L107.455 119.862C107.701 119.997 107.914 120.183 108.08 120.407C108.246 120.631 108.362 120.888 108.418 121.16C108.475 121.432 108.471 121.712 108.407 121.983C108.344 122.253 108.222 122.507 108.05 122.726H108.05Z" fill="#38B5FC"/>
<path d="M99.7278 257.252L105.067 257.252L107.607 236.962L99.7266 236.962L99.7278 257.252Z" fill="#FFB7B7"/>
<path d="M98.3657 255.535L108.881 255.534H108.881C110.659 255.535 112.363 256.23 113.62 257.468C114.877 258.706 115.583 260.385 115.583 262.136V262.351L98.366 262.352L98.3657 255.535Z" fill="#2F2E41"/>
<path d="M63.1434 257.252L68.4831 257.252L71.0231 236.962L63.1426 236.962L63.1434 257.252Z" fill="#FFB7B7"/>
<path d="M61.7817 255.535L72.2971 255.534H72.2975C74.0747 255.535 75.7791 256.23 77.0358 257.468C78.2925 258.706 78.9986 260.385 78.9987 262.136V262.351L61.782 262.352L61.7817 255.535Z" fill="#2F2E41"/>
<path d="M96.5214 98.9264C97.0775 93.9354 93.4215 89.4453 88.3555 88.8974C83.2896 88.3496 78.732 91.9514 78.1759 96.9424C77.6198 101.933 81.2757 106.423 86.3417 106.971C91.4077 107.519 95.9653 103.917 96.5214 98.9264Z" fill="#FFB7B7"/>
<path d="M92.7477 111.563L98.184 114.216C98.184 114.216 104.258 124.616 100.774 134.485C99.0823 139.276 103.846 154.55 103.846 154.55C103.846 154.55 111.226 223.733 111.25 245.085C102.08 246.474 93.37 248.19 92.9344 243.9C92.4989 239.609 87.7314 188.876 87.7314 188.876C87.7314 188.876 81.1752 245.187 75.9489 246.045C70.7226 246.903 60.27 245.616 60.27 245.616C60.27 245.616 68.5683 163.131 74.2301 157.982L75.1012 153.692L75.0779 115.176L81.601 112.109L92.7477 111.563Z" fill="#2F2E41"/>
<path d="M73.3005 170.034C73.9021 169.713 74.425 169.266 74.8323 168.725C75.2397 168.184 75.5217 167.561 75.6583 166.901C75.795 166.24 75.783 165.559 75.6233 164.903C75.4636 164.248 75.16 163.635 74.7339 163.108L81.0563 121.59L72.7962 121.199L67.8677 162.546C67.0163 163.31 66.4789 164.355 66.3573 165.483C66.2358 166.611 66.5385 167.744 67.2082 168.667C67.8778 169.59 68.8679 170.239 69.9908 170.491C71.1136 170.743 72.2912 170.58 73.3005 170.034Z" fill="#FFB7B7"/>
<path d="M80.8767 131.993L70.998 131.378C70.7169 131.361 70.443 131.284 70.1948 131.153C69.9466 131.021 69.7301 130.839 69.5599 130.618C69.3897 130.397 69.2699 130.142 69.2086 129.872C69.1473 129.601 69.146 129.32 69.2047 129.049L71.2631 119.54C71.3618 118.124 72.0267 116.804 73.112 115.87C74.1972 114.935 75.6141 114.463 77.0521 114.557C78.4901 114.651 79.8317 115.302 80.7827 116.369C81.7337 117.436 82.2165 118.83 82.1253 120.247L82.9532 129.904C82.9768 130.18 82.9397 130.459 82.8443 130.72C82.7489 130.981 82.5975 131.218 82.4005 131.417C82.2034 131.615 81.9653 131.769 81.7024 131.868C81.4394 131.968 81.1578 132.01 80.8767 131.993H80.8767Z" fill="#38B5FC"/>
<path d="M97.0203 92.0247C96.6607 90.4177 95.4927 89.0862 94.1472 88.111C91.9292 86.5035 89.2092 85.7133 86.4607 85.878C83.7122 86.0427 81.1094 87.1517 79.1054 89.0122C77.9857 89.9865 77.1784 91.2613 76.7824 92.6805C76.5934 93.3898 76.5834 94.1338 76.753 94.8479C76.9226 95.5619 77.2669 96.2243 77.7557 96.7773L77.9401 96.8911C77.7729 96.1926 78.3237 95.4945 78.9817 95.1864C79.666 94.9389 80.3803 94.7812 81.1064 94.7171C82.2048 94.5125 83.2459 94.0781 84.1593 93.4431C85.0727 92.8081 85.8372 91.9873 86.4009 91.0363C86.8186 92.2068 87.4859 93.2757 88.3579 94.1709C89.2299 95.0662 90.2864 95.7672 91.4563 96.2266C92.6759 96.6965 96.0257 97.3426 97.1868 96.7461C98.668 95.9852 97.3799 93.6318 97.0203 92.0247Z" fill="#2F2E41"/>
<path d="M29.1218 244.719C30.7184 245.272 32.4328 245.41 34.0995 245.121C35.7663 244.832 37.3294 244.124 38.6382 243.067C41.9713 240.311 43.0166 235.771 43.8666 231.567L46.3817 219.13L41.1162 222.702C37.3294 225.271 33.4575 227.922 30.8357 231.643C28.214 235.363 27.0702 240.443 29.1761 244.469" fill="#E6E6E6"/>
<path d="M29.9345 260.641C29.2718 255.884 28.5899 251.066 29.0559 246.258C29.4689 241.988 30.7912 237.818 33.4832 234.398C34.9122 232.586 36.6509 231.034 38.6213 229.811C39.135 229.491 39.6079 230.293 39.0964 230.611C35.687 232.734 33.0499 235.868 31.5653 239.563C29.9257 243.671 29.6625 248.15 29.9449 252.514C30.1156 255.153 30.4783 257.775 30.8427 260.394C30.8714 260.512 30.8535 260.637 30.7924 260.743C30.7314 260.849 30.6318 260.928 30.5138 260.964C30.3935 260.996 30.2652 260.98 30.1568 260.92C30.0484 260.859 29.9687 260.759 29.9349 260.64L29.9345 260.641Z" fill="#F2F2F2"/>
<path d="M34.7051 253.008C35.3898 254.034 36.331 254.868 37.4382 255.431C38.5453 255.995 39.781 256.267 41.0262 256.223C44.2269 256.074 46.8941 253.874 49.295 251.785L56.3977 245.606L51.697 245.385C48.3165 245.225 44.8488 245.075 41.629 246.104C38.4091 247.132 35.4397 249.603 34.851 252.886" fill="#E6E6E6"/>
<path d="M28.0614 263.375C31.2521 257.814 34.9527 251.632 41.5656 249.656C43.4041 249.109 45.3319 248.913 47.2452 249.079C47.8484 249.13 47.6977 250.046 47.0959 249.995C43.8887 249.732 40.6876 250.567 38.0316 252.357C35.4758 254.071 33.4857 256.454 31.8015 258.981C30.7698 260.529 29.8457 262.142 28.9215 263.753C28.6263 264.268 27.7627 263.896 28.0614 263.375Z" fill="#F2F2F2"/>
<path d="M243.667 160.55C237.68 152.656 226.722 150.751 221.276 154.76C215.831 158.769 214.58 169.662 220.568 177.556C226.11 184.862 236.15 186.855 241.681 184.118C241.663 184.203 241.662 184.291 241.677 184.377L241.989 185.896C242.013 186.011 242.066 186.119 242.144 186.209C242.222 186.299 242.322 186.367 242.435 186.408C242.547 186.449 242.668 186.461 242.787 186.443C242.905 186.425 243.017 186.377 243.112 186.304L245.752 184.272C245.846 184.199 245.92 184.104 245.967 183.995C246.014 183.887 246.031 183.768 246.018 183.65C246.005 183.533 245.962 183.421 245.892 183.325C245.823 183.228 245.729 183.151 245.621 183.1L244.201 182.435C244.151 182.413 244.098 182.397 244.044 182.387C248.307 177.947 249.221 167.873 243.667 160.55Z" fill="#CCCCCC"/>
<path d="M230.571 157.57C233.5 158.028 236.138 159.577 237.942 161.896C239.745 164.215 240.576 167.128 240.262 170.033C240.198 170.699 241.253 170.695 241.317 170.033C241.619 166.902 240.708 163.774 238.767 161.277C236.826 158.779 233.999 157.097 230.851 156.567C230.187 156.456 229.902 157.458 230.571 157.57Z" fill="white"/>
<path d="M253.426 24.0998C258.661 15.7027 256.411 4.96651 250.618 1.46173C244.826 -2.04306 234.088 0.835066 228.854 9.23215C224.009 17.0047 225.838 26.9333 230.462 30.9855C230.375 31.0007 230.292 31.0322 230.216 31.0783L228.899 31.9247C228.799 31.9892 228.717 32.0779 228.661 32.1825C228.605 32.287 228.577 32.4038 228.58 32.5219C228.583 32.64 228.617 32.7554 228.677 32.8571C228.738 32.9588 228.825 33.0435 228.928 33.1032L231.82 34.7699C231.924 34.8295 232.041 34.8621 232.161 34.8646C232.281 34.867 232.399 34.8393 232.505 34.7839C232.611 34.7285 232.701 34.6474 232.766 34.5483C232.831 34.4491 232.869 34.3352 232.877 34.2173L232.98 32.6712C232.983 32.6173 232.979 32.5632 232.968 32.5103C238.731 34.7732 248.571 31.8892 253.426 24.0998Z" fill="#CCCCCC"/>
<path d="M251.4 11.0088C252.05 13.8595 251.564 16.847 250.042 19.3547C248.52 21.8623 246.079 23.6988 243.223 24.4848C242.572 24.6717 242.966 25.6364 243.613 25.4507C246.678 24.5706 249.292 22.5813 250.931 19.8818C252.57 17.1824 253.112 13.9723 252.449 10.8954C252.309 10.2463 251.259 10.3549 251.4 11.0088Z" fill="white"/>
<path d="M160.661 63.9418C160.223 54.097 152.255 46.4448 145.464 46.7378C138.673 47.0309 131.414 55.3402 131.852 65.185C132.257 74.2976 139.417 81.5133 145.552 82.3182C145.488 82.3789 145.437 82.4511 145.401 82.5308L144.791 83.9588C144.744 84.0677 144.727 84.1865 144.74 84.3039C144.753 84.4213 144.797 84.5334 144.866 84.6296C144.936 84.7258 145.029 84.8029 145.137 84.8536C145.246 84.9042 145.365 84.9268 145.485 84.9191L148.828 84.7039C148.948 84.6962 149.064 84.6585 149.164 84.5944C149.265 84.5303 149.347 84.4419 149.404 84.3376C149.46 84.2333 149.488 84.1165 149.486 83.9984C149.483 83.8804 149.45 83.7648 149.39 83.6629L148.596 82.3251C148.568 82.2791 148.533 82.2366 148.495 82.1985C154.555 80.8932 161.067 73.0742 160.661 63.9418Z" fill="#38B5FC"/>
<path d="M151.54 54.215C153.698 56.2181 154.994 58.9614 155.159 61.8785C155.324 64.7955 154.347 67.6637 152.427 69.891C151.994 70.4054 152.869 70.9871 153.299 70.4762C155.338 68.0556 156.373 64.9651 156.196 61.8245C156.019 58.6838 154.643 55.7253 152.344 53.5422C151.859 53.0819 151.051 53.7513 151.54 54.215Z" fill="white"/>
<path d="M191.799 129.251C189.182 129.089 186.64 128.317 184.384 127C182.127 125.683 180.219 123.858 178.816 121.675C178.423 121.056 177.91 120.375 178.182 119.613C178.277 119.321 178.47 119.069 178.729 118.899C178.988 118.729 179.298 118.65 179.608 118.676C180.41 118.772 180.928 119.545 181.027 120.286C181.139 121.126 180.537 121.786 179.794 122.098C177.978 122.861 176.147 121.682 174.668 120.741C171.298 118.597 167.592 116.658 163.508 116.413C159.73 116.187 155.679 117.646 153.578 120.874C153.21 121.439 154.123 121.961 154.489 121.399C156.573 118.198 160.786 117.048 164.449 117.543C166.632 117.882 168.74 118.587 170.681 119.627C171.688 120.142 172.664 120.713 173.621 121.313C174.532 121.938 175.497 122.484 176.505 122.941C178.186 123.622 180.412 123.569 181.587 122.002C182.683 120.54 181.836 118.107 180.003 117.696C179.601 117.618 179.186 117.639 178.794 117.758C178.403 117.877 178.047 118.09 177.76 118.378C177.472 118.665 177.262 119.019 177.147 119.406C177.032 119.794 177.017 120.203 177.102 120.598C177.285 121.459 177.943 122.301 178.452 123.005C179.982 125.126 181.976 126.881 184.286 128.142C186.596 129.403 189.163 130.137 191.799 130.291C192.478 130.324 192.476 129.284 191.799 129.251L191.799 129.251Z" fill="#CCCCCC"/>
<path d="M293.119 57.6405C296.007 56.3167 299.553 55.8827 302.492 57.1128C305.431 58.3429 307.435 61.4959 306.485 64.2863C306.054 65.5515 305.073 66.7957 305.455 68.0734C305.749 69.0569 306.776 69.7062 307.784 70.1679C308.792 70.6296 309.895 71.0178 310.624 71.7964C311.353 72.5751 311.505 73.9157 310.594 74.5195C310.294 74.7185 309.919 74.8128 309.628 75.0225C309.38 75.221 309.201 75.4908 309.116 75.7943C309.031 76.0977 309.045 76.4197 309.154 76.7154C309.397 77.3103 309.798 77.8299 310.315 78.2193C311.349 79.0978 312.715 80.1032 312.394 81.3503C312.275 81.6836 312.076 81.9836 311.814 82.225C311.552 82.4664 311.235 82.6419 310.889 82.7368C310.172 82.9406 309.427 83.0374 308.681 83.0239L278.171 83.9709C277.163 84.0454 276.151 83.9897 275.158 83.8051C274.676 83.7184 274.217 83.5346 273.81 83.2652C273.403 82.9958 273.056 82.6465 272.792 82.2393C272.208 81.1739 272.592 79.8614 273.313 78.8665C274.035 77.8716 275.056 77.0868 275.9 76.1732C276.744 75.2596 277.434 74.1192 277.285 72.9385C277.166 71.9933 276.533 71.1764 276.079 70.3175C275.625 69.4587 275.361 68.3855 275.949 67.5954C276.778 66.4821 278.769 66.5828 279.711 65.5454C280.422 64.7625 280.285 63.6354 280.356 62.6259C280.526 60.1974 282.232 57.904 284.662 56.839C285.897 56.3165 287.241 56.091 288.582 56.181C289.923 56.271 291.223 56.6739 292.375 57.3565L293.119 57.6405Z" fill="#2F2E41"/>
<path d="M330.275 177.817V182.733L311.029 185.072L311.03 177.816L330.275 177.817Z" fill="#9E616A"/>
<path d="M335.112 176.564L335.111 192.414H334.907C333.247 192.414 331.654 191.764 330.48 190.607C329.305 189.45 328.646 187.881 328.646 186.245V186.244L328.646 176.563L335.112 176.564Z" fill="#2F2E41"/>
<path d="M306.484 186.179L305.259 190.944L286.02 188.557L287.828 181.524L306.484 186.179Z" fill="#9E616A"/>
<path d="M311.485 186.133L307.535 201.499L307.338 201.449C305.728 201.048 304.346 200.032 303.495 198.627C302.645 197.221 302.397 195.541 302.804 193.954L302.804 193.954L305.217 184.57L311.485 186.133Z" fill="#2F2E41"/>
<path d="M301.57 131.053L302.609 132.119C302.609 132.119 309.39 137.358 304.373 151.157L296.166 174.449L323.674 175.505L323.085 186.149C323.085 186.149 283.193 188.335 283.542 181.858C283.891 175.381 285.363 151.399 285.363 151.399L277.075 144.842L279.073 133.751L301.57 131.053Z" fill="#2F2E41"/>
<path d="M280.261 141.623L277.075 144.842L266.39 173.777C266.39 173.777 264.762 180.994 268.425 182.598C272.088 184.202 295.657 193.174 295.657 193.174L298.063 184.64L279.903 173.902L288.368 162.951L289.641 145.692L280.261 141.623Z" fill="#2F2E41"/>
<path d="M280.431 90.5776L307.551 85.2352L308.14 99.8939L301.115 114.645L302.609 132.119L278.304 136.303L279.065 113.326C279.065 113.326 272.538 104.254 276.383 95.1105L280.431 90.5776Z" fill="#E4E4E4"/>
<path d="M340.904 55.804C341.04 56.4193 341.037 57.0565 340.896 57.6707C340.755 58.2848 340.479 58.8611 340.088 59.3588C339.696 59.8565 339.198 60.2635 338.63 60.5513C338.061 60.839 337.436 61.0005 336.797 61.0242L310.79 90.7344L304.744 83.5051L332.209 56.5742C332.239 55.5144 332.664 54.5025 333.401 53.7303C334.138 52.958 335.137 52.479 336.209 52.3841C337.281 52.2892 338.351 52.5849 339.216 53.2152C340.082 53.8455 340.682 54.7666 340.904 55.804Z" fill="#9E616A"/>
<path d="M316.453 87.4925C316.459 87.77 316.404 88.0455 316.292 88.3002C316.18 88.555 316.014 88.783 315.805 88.9686L308.492 95.4541C307.574 96.5487 306.253 97.24 304.819 97.3766C303.384 97.5131 301.953 97.0838 300.839 96.1826C299.726 95.2814 299.02 93.982 298.877 92.5691C298.735 91.1562 299.166 89.7452 300.078 88.6454L305.182 80.3216C305.328 80.0841 305.524 79.8802 305.757 79.724C305.989 79.5678 306.254 79.4629 306.531 79.4164C306.809 79.3699 307.094 79.3829 307.366 79.4545C307.638 79.5261 307.891 79.6547 308.109 79.8315L315.741 86.0447C315.959 86.2214 316.135 86.4422 316.257 86.6921C316.38 86.942 316.447 87.215 316.453 87.4925Z" fill="#E4E4E4"/>
<path d="M237.908 125.625C237.867 124.996 237.967 124.367 238.2 123.78C238.433 123.194 238.794 122.665 239.257 122.231C239.72 121.797 240.273 121.468 240.879 121.267C241.485 121.067 242.128 121 242.764 121.071L273.001 95.5415L277.877 103.583L246.622 126.149C246.43 127.192 245.857 128.13 245.01 128.784C244.164 129.439 243.103 129.765 242.029 129.7C240.955 129.635 239.942 129.185 239.182 128.434C238.423 127.683 237.969 126.683 237.908 125.625V125.625Z" fill="#9E616A"/>
<path d="M266.908 97.9097C266.944 97.6344 267.04 97.3701 267.19 97.1348C267.339 96.8994 267.538 96.6986 267.773 96.546L275.991 91.215C277.065 90.2683 278.477 89.7799 279.916 89.8569C281.355 89.9339 282.705 90.5699 283.668 91.6256C284.632 92.6813 285.132 94.0705 285.058 95.4885C284.984 96.9066 284.342 98.2379 283.273 99.1905L276.959 106.665C276.779 106.879 276.554 107.051 276.3 107.171C276.046 107.291 275.769 107.356 275.487 107.361C275.205 107.366 274.926 107.311 274.668 107.2C274.409 107.089 274.179 106.924 273.991 106.717L267.391 99.4462C267.203 99.2394 267.062 98.995 266.979 98.7298C266.896 98.4647 266.872 98.1849 266.908 97.9097Z" fill="#E4E4E4"/>
<path d="M291.99 83.7379C297.511 83.7379 301.986 79.3288 301.986 73.8899C301.986 68.451 297.511 64.0419 291.99 64.0419C286.47 64.0419 281.994 68.451 281.994 73.8899C281.994 79.3288 286.47 83.7379 291.99 83.7379Z" fill="#9E616A"/>
<path d="M302.216 72.4898C299.06 72.2401 296.439 69.1332 296.767 66.03C296.804 67.3091 296.362 68.5569 295.526 69.5362C294.69 70.5155 293.518 71.1578 292.233 71.341C290.785 71.4982 289.197 71.0666 287.937 71.7862C286.541 72.5834 286.094 74.5191 284.64 75.2076C283.235 75.8728 281.45 74.9656 280.756 73.5904C280.061 72.2152 280.232 70.563 280.692 69.0956C281.348 67.0028 282.543 65.113 284.16 63.6099C285.777 62.1068 287.761 61.0415 289.92 60.5178C292.079 59.9941 294.338 60.0297 296.479 60.6211C298.62 61.2126 300.568 62.3398 302.136 63.8931C303.463 65.2084 304.517 66.8848 304.688 68.7319C304.859 70.5791 303.989 72.5833 302.305 73.4131L302.216 72.4898Z" fill="#2F2E41"/>
<path d="M155.469 262.991H0.406987C0.299047 262.991 0.195534 262.949 0.11921 262.874C0.0428847 262.798 0 262.696 0 262.59C0 262.484 0.0428847 262.382 0.11921 262.306C0.195534 262.231 0.299047 262.189 0.406987 262.189H155.469C155.577 262.189 155.68 262.231 155.757 262.306C155.833 262.382 155.876 262.484 155.876 262.59C155.876 262.696 155.833 262.798 155.757 262.874C155.68 262.949 155.577 262.991 155.469 262.991Z" fill="#CACACA"/>
</g>
<defs>
<clipPath id="clip0_5_1123">
<rect width="341" height="264" fill="white"/>
</clipPath>
</defs>
</svg>