<svg xmlns="http://www.w3.org/2000/svg" width="353" height="244" viewBox="0 0 353 244" fill="none">
<g clip-path="url(#clip0_5_1253)">
<path opacity="0.1" d="M245.916 73.3338C246.184 72.9503 246.332 72.4951 246.341 72.0265C246.341 69.1878 240.583 66.8907 233.48 66.8907C226.377 66.8907 220.619 69.1878 220.619 72.0265C220.632 72.5573 220.818 73.0691 221.149 73.4832C213.24 74.3703 207.913 76.0325 207.913 77.9405C207.913 80.7762 219.689 83.0764 234.255 83.0764C248.82 83.0764 260.596 80.7762 260.596 77.9405C260.581 75.9329 254.594 74.1742 245.916 73.3338Z" fill="#38B5FC"/>
<g opacity="0.2">
<path opacity="0.2" d="M282.035 222.187C281.924 222.997 281.88 223.815 281.902 224.633C287.303 224.72 292.727 224.903 298.175 225.181C298.212 224.969 298.249 224.748 298.28 224.527C298.63 222.246 298.368 219.912 297.521 217.767C296.399 215.018 294.308 213.054 291.689 212.678C289.07 212.301 286.517 213.593 284.673 215.899C283.251 217.721 282.34 219.892 282.035 222.187Z" fill="#3F3D56"/>
<path opacity="0.2" d="M300.164 211.488C301.008 205.59 298.056 200.284 293.57 199.636C289.084 198.989 284.763 203.245 283.919 209.142C283.075 215.04 286.027 220.346 290.513 220.994C294.999 221.642 299.32 217.386 300.164 211.488Z" fill="#3F3D56"/>
<path opacity="0.2" d="M302.032 198.438C302.876 192.541 299.923 187.235 295.437 186.587C290.951 185.939 286.63 190.195 285.786 196.093C284.942 201.99 287.894 207.297 292.381 207.944C296.867 208.592 301.187 204.336 302.032 198.438Z" fill="#3F3D56"/>
<path opacity="0.2" d="M303.898 185.386C304.742 179.488 301.79 174.182 297.304 173.534C292.818 172.886 288.497 177.142 287.653 183.04C286.809 188.938 289.761 194.244 294.247 194.891C298.733 195.539 303.054 191.283 303.898 185.386Z" fill="#3F3D56"/>
<path opacity="0.2" d="M305.765 172.333C306.609 166.435 303.657 161.129 299.171 160.481C294.684 159.834 290.364 164.09 289.52 169.987C288.675 175.885 291.628 181.191 296.114 181.839C300.6 182.486 304.921 178.23 305.765 172.333Z" fill="#3F3D56"/>
<path opacity="0.2" d="M340.811 86.2264C342.124 84.9631 343.349 83.6111 344.477 82.18L323.64 75.5905L346.696 79.0954C349.604 74.5747 351.562 69.5057 352.451 64.1986C353.341 58.8914 353.142 53.4579 351.869 48.2304L318.598 59.8935L350.167 42.9389C348.155 37.9105 345.134 33.352 341.292 29.5473C337.449 25.7427 332.868 22.7733 327.834 20.8243C322.799 18.8752 317.419 17.9881 312.028 18.2183C306.637 18.4484 301.352 19.7909 296.5 22.1621C291.648 24.5333 287.335 27.8824 283.828 32.0009C280.321 36.1193 277.695 40.9189 276.115 46.1007C274.536 51.2825 274.035 56.7355 274.644 62.1201C275.254 67.5048 276.961 72.7057 279.658 77.399C277.614 79.3583 275.785 81.5331 274.204 83.8857L299.839 102.337L271.728 88.1189C268.773 93.9766 267.319 100.482 267.497 107.046C267.676 113.611 269.482 120.027 272.751 125.713C267.412 130.825 263.614 137.343 261.79 144.521C259.966 151.699 260.189 159.247 262.435 166.303C264.681 173.36 268.858 179.639 274.49 184.423C280.121 189.207 286.979 192.303 294.28 193.357C301.58 194.411 309.029 193.38 315.774 190.382C322.518 187.385 328.287 182.541 332.421 176.406C336.554 170.27 338.885 163.091 339.147 155.687C339.41 148.284 337.593 140.956 333.904 134.541C340.281 128.432 344.43 120.347 345.683 111.585C346.937 102.823 345.222 93.892 340.814 86.2264H340.811Z" fill="#38B5FC"/>
<path opacity="0.1" d="M267.879 100.355C266.611 109.117 268.326 118.053 272.748 125.713C267.41 130.825 263.611 137.343 261.787 144.521C259.963 151.699 260.186 159.247 262.432 166.303C264.678 173.36 268.855 179.639 274.487 184.423C280.118 189.207 286.976 192.303 294.277 193.357C301.577 194.411 309.026 193.38 315.771 190.382C322.516 187.385 328.284 182.541 332.418 176.406C336.551 170.27 338.882 163.091 339.145 155.687C339.407 148.284 337.59 140.956 333.901 134.541C340.065 128.645 268.505 95.969 267.879 100.355Z" fill="black"/>
</g>
<g opacity="0.2">
<path opacity="0.2" d="M51.5869 210.648C51.7093 211.351 51.8907 212.043 52.1292 212.715C56.5319 211.291 60.98 209.943 65.4736 208.668C65.4488 208.482 65.4209 208.289 65.3868 208.096C65.0686 206.113 64.2371 204.25 62.9758 202.692C61.3364 200.722 59.1175 199.67 56.8924 200.084C54.6673 200.498 52.938 202.263 52.0548 204.703C51.3862 206.61 51.2249 208.659 51.5869 210.648Z" fill="#3F3D56"/>
<path opacity="0.2" d="M58.0194 207.324C61.8467 206.716 64.2927 202.053 63.4826 196.91C62.6725 191.767 58.9131 188.091 55.0858 188.699C51.2584 189.307 48.8125 193.969 49.6226 199.113C50.4327 204.256 54.1921 207.932 58.0194 207.324Z" fill="#3F3D56"/>
<path opacity="0.2" d="M57.0094 196.219C60.8456 195.596 63.283 190.912 62.4535 185.757C61.624 180.602 57.8418 176.928 54.0056 177.551C50.1694 178.173 47.732 182.857 48.5615 188.012C49.391 193.167 53.1732 196.841 57.0094 196.219Z" fill="#3F3D56"/>
<path opacity="0.2" d="M54.1131 184.619C57.9405 184.01 60.3864 179.348 59.5763 174.205C58.7662 169.062 55.0068 165.386 51.1795 165.994C47.3522 166.602 44.9062 171.264 45.7163 176.407C46.5264 181.55 50.2858 185.227 54.1131 184.619Z" fill="#3F3D56"/>
<path opacity="0.2" d="M52.1639 173.264C55.9912 172.656 58.4372 167.994 57.6271 162.85C56.817 157.707 53.0576 154.031 49.2303 154.639C45.403 155.247 42.957 159.91 43.7671 165.053C44.5772 170.196 48.3366 173.872 52.1639 173.264Z" fill="#3F3D56"/>
<path opacity="0.2" d="M63.1644 81.4921C63.8948 80.0842 64.5295 78.6283 65.0641 77.1344L46.408 77.427L66.0434 73.9501C67.2753 69.1227 67.4738 64.0877 66.626 59.1775C65.8864 54.8322 64.3321 50.6674 62.0457 46.9044L38.1491 65.8013L59.2597 42.9762C51.7972 33.8904 39.9528 29.0441 27.7302 31.3038C9.46151 34.6717 -2.70834 52.6254 0.517743 71.3947C1.7911 78.9767 5.55237 85.9133 11.2032 91.1008C10.0606 93.2962 9.15373 95.6073 8.49772 97.9953L34.1948 106.216L7.6021 102.197C7.04816 105.922 7.0921 109.711 7.73226 113.422C9.00561 121.004 12.7669 127.94 18.4177 133.128C14.8503 139.983 13.6336 147.828 14.9561 155.448C18.1822 174.221 35.5955 186.699 53.8519 183.322C72.1082 179.945 84.2904 161.994 81.0644 143.222C79.7897 135.641 76.0286 128.706 70.3789 123.519C73.9456 116.662 75.1623 108.816 73.8405 101.195C72.5684 93.6156 68.8106 86.6806 63.1644 81.4921Z" fill="#38B5FC"/>
<path opacity="0.1" d="M7.74164 113.422C9.01499 121.004 12.7763 127.94 18.4271 133.128C14.8597 139.983 13.643 147.828 14.9655 155.448C18.1915 174.221 35.6049 186.699 53.8612 183.322C72.1176 179.945 84.2998 161.994 81.0737 143.222C79.799 135.641 76.0379 128.706 70.3883 123.519C73.8251 116.914 7.08464 109.609 7.74164 113.422Z" fill="black"/>
</g>
<path d="M35.2822 184.704C35.2822 200.986 45.4501 214.159 58.0166 214.159L35.2822 184.704Z" fill="#46455B"/>
<path d="M58.0166 214.159C58.0166 197.696 69.3652 184.374 83.3914 184.374L58.0166 214.159Z" fill="#38B5FC"/>
<path d="M43.5195 186.18C43.5195 201.646 50.0027 214.159 58.0167 214.159L43.5195 186.18Z" fill="#38B5FC"/>
<path d="M58.0166 214.159C58.0166 193.124 71.1348 176.101 87.3457 176.101L58.0166 214.159Z" fill="#46455B"/>
<path opacity="0.1" d="M163.582 231.752C251.041 231.752 321.941 229.384 321.941 226.463C321.941 223.543 251.041 221.175 163.582 221.175C76.1218 221.175 5.22168 223.543 5.22168 226.463C5.22168 229.384 76.1218 231.752 163.582 231.752Z" fill="#38B5FC"/>
<path opacity="0.1" d="M55.392 218.339C58.5891 218.339 61.181 217.899 61.181 217.356C61.181 216.813 58.5891 216.372 55.392 216.372C52.1948 216.372 49.603 216.813 49.603 217.356C49.603 217.899 52.1948 218.339 55.392 218.339Z" fill="#38B5FC"/>
<path d="M51.5024 212.786C51.5024 212.786 54.806 212.687 55.8008 211.974C56.7956 211.261 60.877 210.418 61.1249 211.554C61.3728 212.69 66.0833 217.231 62.3645 217.259C58.6457 217.287 53.7058 216.677 52.7111 216.07C51.7163 215.463 51.5024 212.786 51.5024 212.786Z" fill="#A8A8A8"/>
<path opacity="0.2" d="M62.4265 216.864C58.7077 216.892 53.7647 216.279 52.773 215.672C52.0169 215.211 51.7132 213.549 51.614 212.783H51.5024C51.5024 212.783 51.7132 215.46 52.7049 216.067C53.6965 216.674 58.6333 217.287 62.3583 217.256C63.4337 217.256 63.8056 216.864 63.787 216.294C63.6382 216.643 63.226 216.858 62.4265 216.864Z" fill="black"/>
<path d="M213.067 61.926C208.62 39.9134 189.561 23.3292 166.374 23.3292C147.95 23.3292 132.068 33.8562 124.125 49.1642C105.066 51.0784 90.1382 67.3482 90.1382 87.1384C90.1382 108.192 107.288 125.424 128.256 125.424H210.845C228.314 125.424 242.61 111.065 242.61 93.5193C242.644 85.4571 239.6 77.6886 234.104 71.8119C228.609 65.9352 221.08 62.3973 213.067 61.926ZM176.536 80.7419V104.989H156.206V80.7419H134.606L166.371 48.8529L198.136 80.7575L176.536 80.7419Z" fill="#38B5FC"/>
<path d="M135.307 77.1001C134.997 75.3228 135.148 73.4085 134.337 71.8086C134.258 71.6198 134.131 71.4554 133.968 71.3324C133.765 71.2227 133.537 71.17 133.308 71.1799C132.573 71.1519 131.842 71.1425 131.107 71.1612C130.903 71.1612 130.661 71.1923 130.556 71.3729C130.543 71.3921 130.534 71.4131 130.528 71.4351C129.688 70.5013 129.053 69.3216 128.148 68.4501C128.278 68.4065 128.405 68.3661 128.538 68.3318C128.538 68.2416 128.507 68.1575 128.489 68.0704C128.489 68.0424 128.473 68.0174 128.467 67.9925C128.461 67.9676 128.439 67.8743 128.42 67.8151C128.402 67.756 128.402 67.756 128.39 67.728C128.374 67.6721 128.355 67.617 128.334 67.563C128.334 67.535 128.312 67.507 128.3 67.479L128.235 67.314L128.197 67.2362C128.173 67.1801 128.148 67.1241 128.12 67.0712L128.083 67.0027C128.055 66.9436 128.024 66.8844 127.993 66.8253L127.962 66.7693C127.928 66.707 127.891 66.6448 127.856 66.5794C127.847 66.5692 127.84 66.5577 127.835 66.5452C127.794 66.4736 127.751 66.402 127.708 66.3335C127.354 65.7546 126.964 65.1849 126.676 64.5904C126.171 63.5446 126.003 62.3649 125.665 61.2506C125.328 60.1362 124.736 59.0032 123.732 58.471C123.245 58.222 122.594 58.001 122.548 57.45C122.546 57.2729 122.583 57.0977 122.656 56.9364C122.796 56.5795 122.965 56.2348 123.161 55.9062C123.236 55.7879 123.313 55.6696 123.391 55.5513L123.453 55.4673C123.515 55.3801 123.58 55.293 123.645 55.212L123.725 55.1093C123.791 55.0284 123.859 54.9537 123.927 54.8759L124.011 54.7856C124.107 54.6829 124.203 54.5833 124.305 54.4743C124.399 54.4015 124.474 54.3063 124.522 54.1973C124.549 54.0895 124.554 53.9773 124.537 53.8674C124.488 52.9772 124.953 52.1461 125.467 51.4302C125.982 50.7143 126.589 50.0357 126.883 49.1984C126.917 49.1019 126.945 49.0054 126.97 48.9058C126.979 48.8741 126.986 48.8419 126.992 48.8093C127.007 48.744 127.02 48.6786 127.032 48.6101L127.051 48.4981C127.051 48.4358 127.066 48.3736 127.072 48.3144V48.193V48.0094V47.888C127.072 47.8289 127.072 47.7666 127.072 47.7043C127.072 47.6421 127.072 47.6265 127.072 47.5861C127.072 47.5456 127.072 47.4553 127.057 47.39V47.2841C127.057 47.2094 127.035 47.1316 127.026 47.0569C127.026 47.032 127.026 47.0071 127.026 46.9822C127.011 46.8805 126.993 46.7768 126.97 46.671C126.823 46.0097 126.632 45.3588 126.4 44.7224C126.276 44.3316 126.119 43.9524 125.929 43.5894C126.044 43.5676 126.161 43.5427 126.276 43.5116C126.185 43.3686 126.101 43.2211 126.025 43.0696C126.738 42.0143 127.273 40.848 127.609 39.6177C127.786 38.7388 127.89 37.8465 127.918 36.9502C128.089 34.2546 128.262 31.5466 128.039 28.8573V28.7515C128.123 28.1739 128.129 27.5877 128.058 27.0084C127.986 25.8753 127.653 24.7745 127.085 23.793C126.484 22.8406 125.492 22.0002 124.389 21.8881C124.207 22.0938 124.005 22.2815 123.787 22.4484C123.455 22.1554 123.212 21.7747 123.084 21.3496C124.372 21.1466 125.558 20.5243 126.46 19.5785C127.362 18.6326 127.93 17.4155 128.077 16.1141C128.077 16.0177 128.098 15.9181 128.104 15.8216C128.104 15.7811 128.104 15.7406 128.104 15.7002C128.104 15.6597 128.104 15.585 128.104 15.529C128.104 15.4729 128.104 15.4263 128.104 15.3733V15.2457C128.104 15.1866 128.104 15.1243 128.104 15.0652C128.104 15.006 128.104 14.9998 128.104 14.9687C128.104 14.9376 128.104 14.8317 128.086 14.7664C128.087 14.7425 128.087 14.7186 128.086 14.6948L128.058 14.4769V14.4302C128.058 14.3524 128.033 14.2746 128.018 14.1968V14.1719C128.002 14.0878 127.984 14.0069 127.962 13.9228C127.823 13.3563 127.603 12.8131 127.308 12.3105C127.55 11.7606 127.709 11.1772 127.779 10.5799C127.779 10.4709 127.801 10.3651 127.807 10.2686C127.813 10.1721 127.807 10.1316 127.807 10.0632C127.807 9.99469 127.807 9.99469 127.807 9.96357C127.807 9.8733 127.807 9.78303 127.807 9.69588C127.805 9.6866 127.805 9.67714 127.807 9.66787C127.762 8.17202 127.167 6.74592 126.137 5.66501C126.255 5.46773 126.353 5.25921 126.431 5.04248C126.456 4.97712 126.477 4.91175 126.496 4.84327C126.515 4.77791 126.533 4.71565 126.549 4.65029V4.63473L126.586 4.4573C126.584 4.447 126.584 4.43648 126.586 4.42618C126.586 4.3577 126.608 4.28611 126.617 4.21452C126.626 4.14293 126.617 4.06822 126.635 3.99663C126.635 3.97484 126.635 3.94994 126.635 3.92815C126.635 3.90637 126.635 3.82544 126.635 3.77564V3.70093C126.635 3.65113 126.635 3.59821 126.635 3.54841C126.635 3.49861 126.635 3.50484 126.635 3.48305C126.583 2.55833 126.186 1.68734 125.523 1.0437C124.86 0.400069 123.98 0.0310666 123.058 0.0102538C122.136 -0.0105589 121.24 0.318347 120.549 0.931407C119.857 1.54447 119.422 2.39665 119.328 3.31808C119.283 3.69431 119.295 4.07515 119.362 4.44797C118.461 4.88933 117.685 5.55051 117.104 6.37104C116.523 7.19157 116.156 8.14527 116.037 9.14494C115.998 9.47959 115.986 9.8169 116.003 10.1534C115.468 10.9962 115.149 11.9584 115.073 12.9548C115.073 12.9922 115.073 13.0295 115.073 13.0669C115.073 13.1914 115.058 13.319 115.058 13.4435C115.055 14.3654 115.262 15.2757 115.663 16.1049C116.064 16.9341 116.649 17.6602 117.372 18.2276C117.675 18.7181 118.073 19.1417 118.544 19.4727C118.629 19.7262 118.692 19.9865 118.733 20.2508C118.768 20.6062 118.721 20.9648 118.598 21.2996C118.474 21.6345 118.277 21.9368 118.02 22.1838C117.887 22.2959 117.738 22.3892 117.599 22.4951C117.458 22.4547 117.309 22.4547 117.168 22.4951C115.569 22.9993 114.038 23.9985 113.303 25.5268C113.141 25.8744 113.012 26.2372 112.919 26.61L112.832 26.7438C111.861 28.2706 111.163 29.956 110.768 31.724C110.567 32.6298 110.44 33.5698 110.019 34.3947C109.918 34.5668 109.835 34.7495 109.774 34.9394C109.738 35.2295 109.725 35.522 109.737 35.8141C109.693 36.3432 109.386 36.8132 109.284 37.333C109.222 37.6443 109.234 37.9556 109.182 38.2668C109.034 38.8016 108.84 39.3223 108.602 39.8231C108.274 40.7383 108.277 41.7436 108.032 42.6868C108.002 42.8421 107.936 42.9882 107.84 43.1132C107.646 43.265 107.428 43.3829 107.195 43.4618C107.025 43.569 106.879 43.7113 106.767 43.8792C106.656 44.0471 106.581 44.2369 106.548 44.4361C106.483 44.8376 106.476 45.2464 106.526 45.65L106.647 47.2281L104.887 47.7635L101.998 48.6506C101.152 48.8656 100.343 49.2088 99.5996 49.6684C98.937 50.132 98.4139 50.7694 98.0873 51.5111C97.7944 52.2844 97.6057 53.0936 97.5264 53.9172C97.2472 56.2212 96.7501 58.4934 96.0419 60.7027C95.9831 60.8708 95.9211 61.042 95.8591 61.2101L95.6639 61.705C95.6484 61.7393 95.6329 61.7735 95.6205 61.8077L95.4531 62.203C95.3788 62.3711 95.3013 62.5361 95.2207 62.7011L101.986 64.9671C101.986 65.048 102.001 65.1351 102.014 65.2316C102.249 66.9 102.135 68.5933 102.352 70.2648C102.38 70.5426 102.443 70.8157 102.541 71.0772C102.369 71.2266 102.245 71.4237 102.184 71.6437C102.108 71.9997 102.096 72.3667 102.15 72.7269C102.228 73.5797 102.302 74.4326 102.379 75.2855C102.416 75.5956 102.416 75.9091 102.379 76.2193C102.296 76.7827 101.973 77.2776 101.797 77.816C101.62 78.3545 101.629 79.0455 102.073 79.3724C102.227 79.4785 102.407 79.5432 102.593 79.5601C102.78 79.577 102.968 79.5455 103.139 79.4689C103.48 79.3111 103.782 79.0781 104.022 78.7872C105.382 77.2682 105.993 75.217 107.05 73.4646C107.322 73.0606 107.564 72.6371 107.775 72.1977C107.92 71.8585 108.013 71.4974 108.131 71.1457C108.294 70.6773 108.489 70.2207 108.714 69.7792C108.841 69.5271 109.334 68.9201 109.222 68.64C109.049 68.1575 107.192 67.7342 106.743 67.5848C106.456 67.4563 106.132 67.4419 105.835 67.5443C105.79 67.5658 105.749 67.593 105.711 67.6253L105.553 65.5678C105.829 65.5429 106.101 65.5087 106.371 65.462C106.371 65.076 106.362 64.6869 106.343 64.2947C106.343 63.9399 106.328 63.5819 106.318 63.224C106.3 62.3524 106.281 61.4809 106.259 60.6249C106.254 60.1204 106.222 59.6165 106.163 59.1153C106.058 58.3527 105.826 57.6057 105.751 56.8368C105.863 56.7478 105.995 56.6879 106.135 56.6625C106.353 56.6276 106.573 56.6192 106.792 56.6376H106.966C107.928 56.6235 108.87 56.362 109.702 55.8781C110.555 55.433 111.345 54.8759 112.182 54.4183L112.492 54.2533L112.609 54.1942L112.808 54.0946L112.972 54.0168L113.009 53.9981C113.502 53.7615 114.001 53.5312 114.478 53.2729C114.51 53.3256 114.545 53.3765 114.583 53.4254C114.699 53.5836 114.859 53.7038 115.043 53.7708C115.226 53.8379 115.426 53.8487 115.615 53.802C115.03 55.2183 114.342 56.5878 114.168 58.1192C113.914 60.3323 114.788 62.477 115.659 64.5375L118.414 71.0741C118.724 71.7962 119.123 72.6055 119.877 72.7767C120.355 72.8414 120.841 72.7439 121.259 72.4997C122.52 71.8958 123.654 71.0305 124.81 70.2212L124.857 70.2585C125.901 71.0865 126.555 72.2413 127.277 73.3463L129.208 76.5336C129.194 76.6933 129.221 76.8538 129.285 77.0005C129.426 77.2645 129.609 77.5032 129.827 77.7071C131.055 79.0345 131.863 80.6969 132.152 82.485C132.177 82.9429 132.308 83.3885 132.536 83.7861C133.054 84.5082 134.157 84.4615 134.935 84.0507C135.175 83.9403 135.382 83.7686 135.536 83.5527C135.666 83.3206 135.749 83.0643 135.778 82.7994C135.92 82.1404 135.997 81.469 136.01 80.7948C135.998 79.5716 135.53 78.3545 135.307 77.1001ZM124.221 18.4517C124.357 18.3623 124.487 18.2657 124.612 18.1623C124.35 18.9525 123.928 19.6796 123.372 20.2975C123.242 20.4407 123.103 20.5746 122.96 20.7053V20.6057C122.945 20.2944 122.96 19.9489 122.96 19.619C123.457 19.3224 123.886 18.9249 124.221 18.4517ZM113.279 43.0136L113.297 42.9545C113.407 43.034 113.502 43.132 113.579 43.2439C113.504 43.411 113.469 43.5935 113.476 43.7767C113.484 43.9599 113.534 44.1388 113.623 44.2991C113.784 44.573 114.075 44.8283 114.013 45.1426C113.951 45.457 113.555 45.5815 113.232 45.6344C112.808 45.7029 112.389 45.7807 111.971 45.8648C111.971 45.8648 111.971 45.8648 111.971 45.843C111.98 45.4922 111.933 45.1422 111.831 44.8065C112.554 44.4952 113 43.7544 113.279 43.0136Z" fill="url(#paint0_linear_5_1253)"/>
<path d="M126.177 6.77621C126.455 6.3034 126.625 5.77426 126.674 5.22727C126.722 4.68028 126.649 4.12921 126.46 3.61416C126.27 3.0991 125.968 2.63302 125.576 2.24982C125.185 1.86663 124.713 1.57596 124.195 1.39896C123.678 1.22196 123.127 1.16309 122.584 1.22662C122.041 1.29016 121.519 1.47451 121.056 1.76625C120.592 2.058 120.2 2.4498 119.906 2.91316C119.613 3.37652 119.426 3.89977 119.359 4.44484C119.312 4.81685 119.324 5.19382 119.393 5.56228C118.34 6.06346 117.458 6.86722 116.86 7.87178C116.262 8.87635 115.975 10.0366 116.034 11.2055C115.535 11.9806 115.224 12.8616 115.124 13.7787C115.023 14.6958 115.137 15.6237 115.456 16.4889C115.775 17.3541 116.291 18.1327 116.961 18.7631C117.632 19.3934 118.44 19.8581 119.32 20.1204C120.201 20.3827 121.131 20.4352 122.035 20.274C122.939 20.1127 123.794 19.742 124.531 19.1913C125.268 18.6406 125.867 17.925 126.281 17.1013C126.694 16.2775 126.911 15.3683 126.914 14.4458C126.914 14.3493 126.914 14.2559 126.914 14.1625C127.646 13.0318 127.974 11.6846 127.843 10.3422C127.711 8.99986 127.129 7.74229 126.192 6.77621H126.177Z" fill="#46455B"/>
<g opacity="0.1">
<path opacity="0.1" d="M119.35 4.62537L119.399 4.59736C119.386 4.53355 119.377 4.46913 119.371 4.40437C119.37 4.41782 119.37 4.43139 119.371 4.44484C119.361 4.50458 119.354 4.56485 119.35 4.62537Z" fill="black"/>
<path opacity="0.1" d="M127.813 10.6701C127.706 11.573 127.393 12.439 126.899 13.2007C126.899 13.2941 126.899 13.3875 126.899 13.4808C126.891 15.0095 126.298 16.4765 125.241 17.5766C124.184 18.6767 122.745 19.325 121.225 19.3868C119.704 19.4485 118.218 18.9189 117.076 17.9081C115.934 16.8974 115.224 15.4833 115.094 13.9602C115.094 14.122 115.073 14.2715 115.073 14.4458C115.073 16.0209 115.696 17.5314 116.805 18.6452C117.913 19.759 119.417 20.3847 120.986 20.3847C122.554 20.3847 124.058 19.759 125.167 18.6452C126.276 17.5314 126.899 16.0209 126.899 14.4458C126.899 14.3493 126.899 14.2559 126.899 14.1625C127.394 13.4013 127.707 12.5351 127.813 11.6319C127.862 11.2343 127.869 10.8327 127.835 10.4336C127.844 10.5114 127.825 10.5923 127.813 10.6701Z" fill="black"/>
<path opacity="0.1" d="M126.663 4.40128C126.598 4.90063 126.432 5.38145 126.176 5.81442C126.282 5.92025 126.378 6.0323 126.486 6.14436C126.581 5.88175 126.645 5.6092 126.678 5.33196C126.714 5.02237 126.708 4.7095 126.663 4.40128Z" fill="black"/>
</g>
<path d="M102.351 70.492C102.379 70.8299 102.471 71.1593 102.621 71.4631C102.696 71.6149 102.807 71.7464 102.943 71.8466C103.079 71.9467 103.238 72.0127 103.405 72.039C103.711 72.0409 104.012 71.9533 104.269 71.7868C104.793 71.5098 105.342 71.1892 105.614 70.6601C105.887 70.1309 105.844 69.5395 105.797 68.9637L105.444 64.4348C104.595 64.4099 103.739 64.4099 102.887 64.4566C102.035 64.5033 101.895 64.7025 102.013 65.5304C102.246 67.1739 102.122 68.8454 102.351 70.492Z" fill="#FBBEBE"/>
<path d="M127.336 73.5517L129.359 76.8387C129.447 77.0304 129.606 77.1801 129.802 77.2558C129.947 77.2776 130.095 77.2514 130.224 77.1811C130.879 76.8363 131.454 76.357 131.913 75.7741C132.28 75.4312 132.558 75.0039 132.725 74.5291C132.791 74.2657 132.788 73.9899 132.717 73.7278C132.647 73.4658 132.511 73.2262 132.322 73.0319C132.088 72.8226 131.833 72.637 131.563 72.4778C129.961 71.3915 129.238 69.331 127.658 68.2166C127.57 68.1419 127.462 68.0933 127.348 68.0766C127.231 68.0848 127.118 68.1234 127.02 68.1886L124.85 69.3777C123.921 69.8912 124.209 69.9535 124.922 70.5075C125.96 71.3231 126.604 72.4623 127.336 73.5517Z" fill="#FBBEBE"/>
<path d="M106.749 67.8711C106.461 67.7457 106.136 67.7346 105.841 67.84C105.71 67.92 105.599 68.0293 105.516 68.1594C105.434 68.2895 105.383 68.4369 105.367 68.5902C105.311 68.9014 105.317 69.2127 105.233 69.5022C105.047 69.9845 104.743 70.4124 104.35 70.7472C104.202 70.9231 104.011 71.0572 103.795 71.1363C103.501 71.211 103.191 71.0741 102.894 71.1363C102.721 71.1817 102.563 71.2734 102.438 71.4017C102.313 71.53 102.225 71.69 102.184 71.8647C102.106 72.2152 102.094 72.5774 102.15 72.9323L102.379 75.4536C102.417 75.7637 102.417 76.0772 102.379 76.3874C102.295 76.9445 101.973 77.4301 101.797 77.9624C101.62 78.4946 101.626 79.1732 102.072 79.5187C102.228 79.623 102.408 79.6862 102.595 79.7025C102.782 79.7189 102.97 79.6878 103.142 79.6121C103.483 79.4578 103.785 79.2279 104.025 78.9397C105.388 77.4457 105.999 75.4193 107.059 73.6949C107.33 73.2978 107.572 72.8817 107.784 72.4499C107.929 72.1137 108.022 71.7589 108.14 71.4133C108.303 70.9507 108.499 70.5003 108.726 70.0656C108.85 69.8166 109.346 69.2189 109.234 68.9419C109.07 68.4377 107.207 68.0174 106.749 67.8711Z" fill="#46455B"/>
<path d="M131.358 74.8341C131.052 75.4158 130.538 75.8602 129.92 76.0792C129.742 76.1282 129.577 76.2141 129.434 76.3313C129.34 76.4461 129.282 76.5861 129.266 76.7338C129.251 76.8815 129.279 77.0305 129.347 77.1624C129.489 77.4235 129.673 77.6592 129.892 77.8596C131.116 79.1623 131.925 80.802 132.217 82.569C132.245 83.0219 132.378 83.462 132.604 83.8546C133.122 84.5674 134.228 84.5207 135.009 84.1129C135.247 84.0037 135.454 83.8355 135.61 83.6242C135.741 83.3955 135.823 83.1423 135.852 82.8803C135.994 82.2307 136.072 81.5687 136.084 80.9038C136.084 79.6587 135.601 78.4479 135.378 77.2153C135.068 75.4629 135.217 73.5735 134.405 71.9923C134.328 71.803 134.203 71.6376 134.042 71.5129C133.838 71.4052 133.609 71.3536 133.379 71.3635C132.647 71.3355 131.91 71.3293 131.175 71.3449C130.971 71.3449 130.729 71.376 130.624 71.5534C130.587 71.6524 130.575 71.7591 130.589 71.8639C130.603 71.9688 130.643 72.0684 130.704 72.1541C131.154 73.0475 131.891 73.754 131.358 74.8341Z" fill="#46455B"/>
<path d="M113.923 43.4276C113.718 43.5981 113.579 43.8354 113.53 44.0981C113.481 44.3609 113.526 44.6325 113.656 44.8656C113.82 45.1364 114.112 45.3885 114.047 45.6998C113.982 46.0111 113.588 46.1294 113.266 46.1823C110.421 46.6367 107.65 47.474 104.898 48.3082L102.004 49.1829C101.156 49.393 100.346 49.7309 99.599 50.1851C98.9379 50.6383 98.4145 51.2664 98.0867 51.9998C97.7927 52.7611 97.603 53.559 97.5226 54.3716C97.0888 57.3442 96.534 60.3417 95.2139 63.0372L102.227 65.3499C102.908 65.6001 103.613 65.7775 104.331 65.8791C105.015 65.9377 105.704 65.9042 106.38 65.7795C106.336 64.2076 106.308 62.5859 106.265 61.0109C106.261 60.5135 106.229 60.0168 106.169 59.523C106.064 58.7698 105.831 58.0352 105.757 57.2757C106.067 57.008 106.553 57.0765 106.972 57.0858C107.934 57.0728 108.879 56.817 109.717 56.3419C110.566 55.8999 111.36 55.3521 112.196 54.9008C113.607 54.1506 115.212 53.6557 116.29 52.4636C115.742 54.5646 114.431 56.3948 114.192 58.5519C113.954 60.709 114.812 62.8629 115.689 64.8768L118.45 71.3137C118.76 72.0234 119.16 72.8234 119.913 72.9914C120.392 73.0543 120.879 72.9581 121.298 72.7175C123.839 71.5223 125.872 69.2718 128.587 68.5559C128.383 67.205 127.323 66.0876 126.728 64.8643C126.22 63.8341 126.055 62.6699 125.717 61.5712C125.38 60.4724 124.788 59.355 123.778 58.832C123.291 58.5861 122.637 58.3683 122.594 57.8235C122.59 57.6482 122.627 57.4744 122.702 57.3162C123.065 56.3973 123.629 55.5727 124.354 54.9039C124.446 54.8304 124.52 54.7367 124.571 54.63C124.595 54.528 124.6 54.4226 124.586 54.3187C124.534 53.4409 125.002 52.6223 125.516 51.9158C126.03 51.2092 126.641 50.54 126.935 49.7151C127.441 48.2926 126.935 46.7301 126.44 45.3076C126.277 44.7173 125.994 44.1673 125.609 43.6922C124.958 42.9949 123.948 42.7926 123 42.6868C119.947 42.3382 116.355 41.532 113.923 43.4276Z" fill="#46455B"/>
<g opacity="0.1">
<path opacity="0.1" d="M125.526 49.656C125.005 50.3626 124.537 51.1812 124.596 52.0589C124.61 52.1628 124.604 52.2682 124.58 52.3702C124.53 52.4769 124.456 52.5706 124.364 52.6441C123.639 53.3129 123.074 54.1376 122.712 55.0564C122.637 55.2147 122.599 55.3885 122.603 55.5638C122.635 55.7285 122.709 55.8822 122.818 56.0098C122.926 56.1374 123.066 56.2346 123.223 56.2921C123.539 55.774 123.925 55.3026 124.37 54.8914C124.462 54.8179 124.536 54.7243 124.587 54.6175C124.61 54.5156 124.616 54.4101 124.602 54.3063C124.549 53.4285 125.017 52.6099 125.532 51.9033C126.046 51.1967 126.657 50.5275 126.951 49.7027C127.205 48.8956 127.231 48.0335 127.026 47.2126C127.005 47.2935 126.98 47.3744 126.951 47.4553C126.651 48.2802 126.049 48.9525 125.526 49.656Z" fill="black"/>
<path opacity="0.1" d="M113.604 43.854C113.707 43.8331 113.802 43.7848 113.88 43.7142C113.958 43.6436 114.016 43.5532 114.047 43.4525C114.053 43.4122 114.053 43.3713 114.047 43.3311L113.914 43.4276C113.777 43.5419 113.671 43.6884 113.604 43.854Z" fill="black"/>
<path opacity="0.1" d="M104.332 63.6317C103.614 63.5302 102.908 63.3528 102.227 63.1026L96.0292 61.0607C95.795 61.7354 95.5208 62.3954 95.208 63.0372L102.227 65.3499C102.908 65.6001 103.614 65.7775 104.332 65.8791C105.016 65.9377 105.705 65.9042 106.38 65.7795C106.358 65.0418 106.343 64.2916 106.324 63.5415C105.667 63.6585 104.997 63.6889 104.332 63.6317Z" fill="black"/>
<path opacity="0.1" d="M121.308 70.4702C120.888 70.7108 120.402 70.8069 119.923 70.7441C119.17 70.576 118.764 69.7761 118.46 69.0664L115.699 62.6295C115.079 61.2132 114.475 59.7409 114.252 58.2313C114.233 58.3371 114.218 58.443 114.202 58.5426C113.951 60.7214 114.822 62.8536 115.699 64.8674L118.46 71.3044C118.77 72.0141 119.17 72.814 119.923 72.9821C120.402 73.0449 120.888 72.9488 121.308 72.7082C123.849 71.5129 125.882 69.2625 128.597 68.5466C128.456 67.8396 128.172 67.1691 127.763 66.5763C125.451 67.4883 123.583 69.3963 121.308 70.4702Z" fill="black"/>
<path opacity="0.1" d="M116.3 50.2162C115.222 51.3991 113.616 51.9033 112.206 52.6534C111.36 53.1048 110.567 53.6526 109.727 54.0946C108.889 54.5706 107.944 54.8275 106.981 54.8416C106.563 54.8416 106.092 54.7607 105.767 55.0284C105.835 55.7287 106.036 56.4104 106.151 57.1045C106.426 57.0672 106.705 57.0609 106.981 57.0858C107.944 57.0728 108.888 56.817 109.727 56.3419C110.576 55.8999 111.37 55.3521 112.206 54.9008C113.136 54.4059 114.149 54.0199 115.042 53.4721C115.538 52.4182 115.958 51.3301 116.3 50.2162Z" fill="black"/>
</g>
<path d="M118.761 21.1504C118.795 21.5011 118.748 21.8549 118.625 22.1847C118.501 22.5144 118.304 22.8112 118.048 23.0522C117.878 23.1985 117.676 23.3075 117.512 23.46C117.364 23.6118 117.251 23.7941 117.181 23.9942C117.111 24.1943 117.085 24.4075 117.105 24.6187C117.125 24.83 117.19 25.0343 117.297 25.2175C117.404 25.4007 117.549 25.5583 117.723 25.6793C118.28 26.0217 118.99 25.9283 119.635 25.8163C120.494 25.6971 121.337 25.4767 122.145 25.1595C122.958 24.8394 123.65 24.2697 124.122 23.5316C123.783 23.314 123.502 23.0153 123.306 22.6622C123.11 22.3091 123.004 21.9127 122.997 21.5084C122.954 20.7022 123.174 19.7871 122.666 19.1614C122.157 18.5358 121.256 18.5638 120.496 18.7692C120.121 18.8751 119.759 19.0182 119.384 19.121C119.192 19.1708 118.566 19.1739 118.454 19.3139C118.237 19.5692 118.739 20.7426 118.761 21.1504Z" fill="#FBBEBE"/>
<path opacity="0.1" d="M118.761 21.1504C118.795 21.5011 118.748 21.8549 118.625 22.1847C118.501 22.5144 118.304 22.8112 118.048 23.0522C117.878 23.1985 117.676 23.3075 117.512 23.46C117.364 23.6118 117.251 23.7941 117.181 23.9942C117.111 24.1943 117.085 24.4075 117.105 24.6187C117.125 24.83 117.19 25.0343 117.297 25.2175C117.404 25.4007 117.549 25.5583 117.723 25.6793C118.28 26.0217 118.99 25.9283 119.635 25.8163C120.494 25.6971 121.337 25.4767 122.145 25.1595C122.958 24.8394 123.65 24.2697 124.122 23.5316C123.783 23.314 123.502 23.0153 123.306 22.6622C123.11 22.3091 123.004 21.9127 122.997 21.5084C122.954 20.7022 123.174 19.7871 122.666 19.1614C122.157 18.5358 121.256 18.5638 120.496 18.7692C120.121 18.8751 119.759 19.0182 119.384 19.121C119.192 19.1708 118.566 19.1739 118.454 19.3139C118.237 19.5692 118.739 20.7426 118.761 21.1504Z" fill="black"/>
<path d="M120.915 21.1068C123.21 21.1068 125.07 19.238 125.07 16.9328C125.07 14.6275 123.21 12.7587 120.915 12.7587C118.619 12.7587 116.759 14.6275 116.759 16.9328C116.759 19.238 118.619 21.1068 120.915 21.1068Z" fill="#FBBEBE"/>
<path d="M107.793 48.9494C107.72 49.2817 107.588 49.5981 107.403 49.8832C106.917 50.7472 106.742 51.7529 106.907 52.7313C106.994 53.2163 107.199 53.6722 107.503 54.0588C107.807 54.4453 108.202 54.7506 108.652 54.9475C108.839 55.0415 109.049 55.0841 109.258 55.071C109.468 55.0579 109.67 54.9895 109.845 54.8728C109.29 54.1475 109.259 53.1577 109.293 52.2426C109.283 52.072 109.323 51.9022 109.408 51.7539C109.431 51.7191 109.461 51.6894 109.496 51.6665C109.531 51.6437 109.57 51.6281 109.611 51.6209C109.652 51.6136 109.694 51.6148 109.735 51.6242C109.776 51.6337 109.814 51.6514 109.848 51.6761C109.832 52.2525 109.943 52.8253 110.173 53.3538C110.26 53.5561 110.409 53.7802 110.632 53.774C110.942 53.774 111.032 53.3351 111.019 53.0176C110.973 51.7228 110.908 50.375 110.288 49.242C110.015 48.8535 109.806 48.4237 109.668 47.9689C109.663 47.807 109.607 47.6509 109.507 47.5238C109.439 47.4698 109.359 47.4324 109.274 47.4149C108.918 47.3121 108.069 46.9978 107.775 47.3339C107.48 47.6701 107.849 48.5199 107.793 48.9494Z" fill="#FBBEBE"/>
<path d="M113.963 26.7781C113.486 26.722 113.111 27.1609 112.851 27.5655C111.877 29.0714 111.176 30.7385 110.781 32.4897C110.579 33.3831 110.455 34.3106 110.031 35.123C109.93 35.2919 109.848 35.4715 109.786 35.6584C109.752 35.9455 109.739 36.2348 109.749 36.5237C109.705 37.0435 109.399 37.5073 109.296 38.0209C109.234 38.3322 109.247 38.6434 109.191 38.9547C109.098 39.4901 108.804 39.9694 108.614 40.483C108.283 41.3857 108.286 42.3755 108.041 43.3062C108.011 43.4587 107.945 43.6017 107.849 43.7233C107.685 43.9069 107.418 43.9505 107.204 44.0688C107.034 44.1732 106.888 44.3131 106.775 44.479C106.663 44.6449 106.588 44.8329 106.554 45.0306C106.489 45.4259 106.482 45.8285 106.532 46.2258L106.724 48.6942C106.919 48.6101 107.034 48.3829 107.214 48.2491C107.524 48 107.954 48.0561 108.339 48.1245L108.9 48.2273C109.473 48.33 110.096 48.4638 110.449 48.9183C110.74 48.4576 110.576 47.7822 111.022 47.4771C111.168 47.3775 111.351 47.3464 111.503 47.2592C111.647 47.165 111.767 47.0372 111.853 46.8866C111.938 46.736 111.986 46.567 111.992 46.3939C112.002 46.0472 111.954 45.7013 111.853 45.3699C112.572 45.0586 113.018 44.3334 113.3 43.6019C113.609 42.7164 113.833 41.8034 113.97 40.8752C114.617 37.2054 115.209 33.5107 115.271 29.7849C115.312 29.1625 115.244 28.5378 115.07 27.9391C114.878 27.3477 114.58 26.8465 113.963 26.7781Z" fill="#38B5FC"/>
<path opacity="0.1" d="M113.963 26.7781C113.486 26.722 113.111 27.1609 112.851 27.5655C111.877 29.0714 111.176 30.7385 110.781 32.4897C110.579 33.3831 110.455 34.3106 110.031 35.123C109.93 35.2919 109.848 35.4715 109.786 35.6584C109.752 35.9455 109.739 36.2348 109.749 36.5237C109.705 37.0435 109.399 37.5073 109.296 38.0209C109.234 38.3322 109.247 38.6434 109.191 38.9547C109.098 39.4901 108.804 39.9694 108.614 40.483C108.283 41.3857 108.286 42.3755 108.041 43.3062C108.011 43.4587 107.945 43.6017 107.849 43.7233C107.685 43.9069 107.418 43.9505 107.204 44.0688C107.034 44.1732 106.888 44.3131 106.775 44.479C106.663 44.6449 106.588 44.8329 106.554 45.0306C106.489 45.4259 106.482 45.8285 106.532 46.2258L106.724 48.6942C106.919 48.6101 107.034 48.3829 107.214 48.2491C107.524 48 107.954 48.0561 108.339 48.1245L108.9 48.2273C109.473 48.33 110.096 48.4638 110.449 48.9183C110.74 48.4576 110.576 47.7822 111.022 47.4771C111.168 47.3775 111.351 47.3464 111.503 47.2592C111.647 47.165 111.767 47.0372 111.853 46.8866C111.938 46.736 111.986 46.567 111.992 46.3939C112.002 46.0472 111.954 45.7013 111.853 45.3699C112.572 45.0586 113.018 44.3334 113.3 43.6019C113.609 42.7164 113.833 41.8034 113.97 40.8752C114.617 37.2054 115.209 33.5107 115.271 29.7849C115.312 29.1625 115.244 28.5378 115.07 27.9391C114.878 27.3477 114.58 26.8465 113.963 26.7781Z" fill="black"/>
<path d="M124.435 22.7814C123.749 23.5036 122.873 24.0153 121.909 24.2568C120.949 24.4946 119.968 24.6395 118.981 24.6895C118.677 24.7391 118.366 24.7123 118.076 24.6117C117.933 24.5562 117.815 24.4495 117.746 24.3121C117.677 24.1747 117.66 24.0164 117.701 23.8677C117.753 23.7783 117.79 23.6804 117.809 23.5783C117.809 23.323 117.431 23.3012 117.189 23.3759C115.59 23.874 114.056 24.8576 113.319 26.3672C112.946 27.2422 112.714 28.1709 112.631 29.1188C112.284 31.6089 111.936 34.1208 112.401 36.5891C112.652 37.8995 113.13 39.1726 113.157 40.5048C113.176 41.2518 113.049 41.9958 113.055 42.7428C113.034 43.0044 113.104 43.2652 113.254 43.4805C113.368 43.6143 113.542 43.6984 113.622 43.8571C113.756 44.1186 113.576 44.4797 113.752 44.7193C113.973 45.0119 114.425 44.8003 114.726 44.5948C116.233 43.5669 118.054 43.1072 119.867 43.2968C122.036 43.5303 124.205 44.6975 126.319 44.1124C126.21 43.9538 126.117 43.7849 126.04 43.6081C124.986 40.1344 125.058 36.2467 126.635 32.9784C127.171 31.861 127.875 30.7996 128.092 29.5732C128.175 29.0009 128.182 28.42 128.113 27.8457C128.04 26.7262 127.705 25.6397 127.137 24.6739C126.539 23.7183 125.544 22.8935 124.435 22.7814Z" fill="#38B5FC"/>
<path d="M114.385 50.0233C114.217 50.4781 114.136 50.9607 114.146 51.4457C114.132 51.9085 114.155 52.3718 114.214 52.8309C114.251 53.2238 114.391 53.5999 114.62 53.9203C114.737 54.0779 114.898 54.1973 115.082 54.2632C115.266 54.3292 115.466 54.3387 115.656 54.2907C115.804 54.2279 115.936 54.1328 116.044 54.0122C116.151 53.8916 116.23 53.7486 116.275 53.5935C116.365 53.2813 116.431 52.9629 116.474 52.641C116.653 51.7072 117.149 50.8045 117.159 49.8396C117.165 49.7251 117.147 49.6105 117.106 49.5034C116.926 49.1081 116.043 48.663 115.612 48.7284C115.079 48.8124 114.583 49.5657 114.385 50.0233Z" fill="#FBBEBE"/>
<path opacity="0.1" d="M126.375 26.3049C126.295 27.136 127.094 27.7617 127.41 28.5305C127.538 28.8909 127.611 29.2687 127.627 29.651C127.85 32.3061 127.677 34.9736 127.503 37.6287C127.478 38.513 127.374 39.3932 127.193 40.2589C126.747 42.0736 125.644 43.6486 124.575 45.1738C124.413 45.4236 124.225 45.6552 124.014 45.8648C123.699 46.1217 123.348 46.3314 122.973 46.4873L119.285 48.2833C118.822 48.488 118.383 48.7416 117.974 49.0397C117.499 49.4133 117.126 49.9016 116.889 50.459C116.173 50.0917 115.43 49.7618 114.72 49.3945C114.553 49.3074 114.364 49.1953 114.336 49.0085C114.298 48.7595 114.559 48.5821 114.738 48.386C115.073 48.053 115.175 47.5581 115.358 47.1223C115.953 45.6905 117.444 44.7753 117.983 43.3249C118.191 42.7677 118.253 42.1358 118.622 41.6689C118.831 41.435 119.068 41.2261 119.325 41.0464C119.89 40.562 120.409 40.0253 120.875 39.4434C121.086 39.2239 121.258 38.9703 121.386 38.6932C121.504 38.2662 121.545 37.8213 121.507 37.3797C121.535 35.9292 122.189 34.5783 122.588 33.1839C122.963 31.8734 123.121 30.4977 123.614 29.2246C124.107 27.9515 125.055 26.6473 126.375 26.3049Z" fill="black"/>
<path d="M126.855 26.3049C126.775 27.136 127.571 27.7617 127.887 28.5305C128.016 28.8908 128.091 29.2685 128.107 29.651C128.327 32.3061 128.157 34.9736 127.983 37.6287C127.953 38.5134 127.844 39.3936 127.658 40.2589C127.212 42.0736 126.109 43.6486 125.039 45.1738C124.878 45.4236 124.689 45.6552 124.478 45.8648C124.163 46.1217 123.812 46.3314 123.437 46.4873L119.746 48.2833C119.285 48.4894 118.845 48.7429 118.435 49.0397C117.961 49.4142 117.588 49.9022 117.351 50.459C116.635 50.0917 115.894 49.7618 115.181 49.3945C115.014 49.3074 114.825 49.1953 114.797 49.0085C114.757 48.7595 115.017 48.5821 115.197 48.386C115.535 48.053 115.637 47.5581 115.817 47.1223C116.409 45.6905 117.902 44.7753 118.442 43.3249C118.649 42.7677 118.711 42.1358 119.08 41.6689C119.288 41.4335 119.525 41.2245 119.783 41.0464C120.349 40.562 120.868 40.0253 121.333 39.4434C121.544 39.2239 121.717 38.9703 121.844 38.6932C121.961 38.2659 122.002 37.8213 121.965 37.3797C121.993 35.9292 122.644 34.5783 123.044 33.1839C123.422 31.8734 123.577 30.4977 124.069 29.2246C124.562 27.9515 125.541 26.6473 126.855 26.3049Z" fill="#38B5FC"/>
<path d="M122.972 10.4803C121.692 10.3241 120.396 10.5942 119.284 11.2491C119.448 11.2491 119.613 11.2491 119.777 11.2865C121.006 11.4357 122.158 11.9689 123.07 12.8108C123.981 13.6527 124.607 14.7609 124.858 15.9789C125.109 17.197 124.973 18.4634 124.469 19.5996C123.965 20.7358 123.118 21.6843 122.049 22.3114C123.568 22.3603 125.048 21.8194 126.181 20.801C127.314 19.7827 128.013 18.3652 128.132 16.843C128.252 15.3207 127.783 13.8106 126.823 12.6263C125.864 11.4421 124.487 10.6746 122.978 10.4834L122.972 10.4803Z" fill="#46455B"/>
<path d="M124.791 13.7828C124.935 14.1091 125.013 14.4609 125.021 14.8177C125.029 15.1746 124.967 15.5295 124.838 15.862C124.81 15.778 124.779 15.6939 124.742 15.6099C124.01 13.9758 121.76 13.3003 119.712 14.1003C119.167 14.2945 118.67 14.602 118.252 15.0027C117.833 15.4034 117.504 15.8882 117.285 16.4254C116.765 14.8442 117.822 13.0326 119.765 12.2732C121.81 11.4732 124.06 12.1486 124.791 13.7828Z" fill="#46455B"/>
<g opacity="0.1">
<path opacity="0.1" d="M124.804 15.7344C124.709 14.5879 124.286 13.4935 123.585 12.584C122.883 11.6746 121.934 10.9891 120.852 10.611C120.302 10.7416 119.774 10.9512 119.284 11.2335C119.448 11.2335 119.613 11.2335 119.777 11.2709C120.967 11.4153 122.084 11.9195 122.982 12.7167C123.88 13.5139 124.515 14.5663 124.804 15.7344Z" fill="black"/>
<path opacity="0.1" d="M125.761 11.3985C125.666 10.2522 125.242 9.15819 124.541 8.24886C123.84 7.33954 122.891 6.65393 121.81 6.27509C121.259 6.41302 120.731 6.62892 120.242 6.91629C120.406 6.91629 120.57 6.91629 120.738 6.95364C121.924 7.09699 123.04 7.5986 123.937 8.39222C124.834 9.18583 125.47 10.2341 125.761 11.3985Z" fill="black"/>
<path opacity="0.1" d="M125.786 4.92731C125.727 4.23838 125.47 3.58144 125.047 3.03575C124.624 2.49006 124.053 2.07894 123.403 1.85202C123.07 1.93313 122.751 2.06208 122.455 2.23488C122.554 2.23488 122.653 2.23487 122.764 2.25978C123.477 2.34707 124.147 2.64843 124.686 3.1244C125.225 3.60037 125.608 4.22877 125.786 4.92731Z" fill="black"/>
<path opacity="0.1" d="M127.998 14.9251C128.113 16.3492 127.713 17.767 126.871 18.9192C126.03 20.0714 124.805 20.8811 123.418 21.2002C123.019 21.6357 122.557 22.0091 122.048 22.3083C122.965 22.3419 123.877 22.1608 124.712 21.7792C125.547 21.3976 126.283 20.8261 126.86 20.1099C127.437 19.3936 127.841 18.5523 128.038 17.6524C128.236 16.7525 128.222 15.8188 127.998 14.9251Z" fill="black"/>
</g>
<path d="M180.431 77.0877C180.052 76.7731 179.582 76.5902 179.091 76.566C178.601 76.5419 178.115 76.6779 177.707 76.9538C177.088 77.4145 176.818 78.1802 176.564 78.9024C176.192 79.97 175.591 81.0065 175.492 82.1364C175.216 85.249 173.043 87.8668 172.392 90.9172C172.154 92.0066 172.107 93.152 171.658 94.1699C171.443 94.6167 171.194 95.0464 170.914 95.4554C169.825 97.1762 168.891 98.992 168.125 100.881C167.586 101.046 167.143 101.565 166.712 101.979C166.159 102.51 165.499 102.914 164.775 103.162C164.48 103.229 164.205 103.364 163.972 103.558C163.663 103.888 163.663 104.42 163.405 104.803C163.222 105.053 162.979 105.254 162.699 105.385C162.68 105.296 162.665 105.207 162.655 105.117C162.59 104.641 162.538 104.165 162.488 103.688C163.21 102.631 163.532 101.35 163.398 100.075C163.264 98.7997 162.682 97.6144 161.757 96.7316C161.699 95.9885 161.721 95.2414 161.822 94.5029C161.867 94.3253 161.863 94.1384 161.808 93.9635C161.753 93.7885 161.651 93.6325 161.512 93.5131C161.36 93.4166 161.174 93.3948 161.013 93.3139C160.779 93.1565 160.581 92.9519 160.43 92.7132C159.995 92.2175 159.399 91.8926 158.748 91.7957C158.097 91.6989 157.432 91.8364 156.873 92.184C156.005 92.7661 155.546 93.7995 154.806 94.5434C154.421 94.9262 153.966 95.2282 153.585 95.611C152.822 96.4319 152.327 97.4667 152.165 98.5774C152.006 99.682 151.961 100.8 152.032 101.914C152.024 102.252 152.072 102.588 152.175 102.91C152.285 103.174 152.438 103.418 152.627 103.632C153.535 104.822 154.735 105.754 156.11 106.337C156.12 106.403 156.125 106.47 156.126 106.536C156.126 106.639 156.126 106.742 156.101 106.848L155.949 106.823C155.391 106.754 154.802 106.823 154.285 106.608C153.402 106.225 153.045 105.098 152.175 104.656C152.102 104.618 152.026 104.587 151.948 104.563C151.742 103.112 151.316 101.702 150.687 100.38C150.377 99.7571 150.027 99.1096 149.99 98.4062C150.009 97.7522 150.155 97.1082 150.42 96.5106C151.121 94.3725 151.674 92.1885 152.075 89.974C152.356 88.5858 152.639 87.1976 152.924 85.8093C153.309 85.4579 153.649 85.0595 153.935 84.6234C154.532 83.756 154.881 82.7409 154.945 81.6882C154.973 81.1632 154.897 80.638 154.721 80.1427C154.545 79.6475 154.274 79.1921 153.922 78.8028C153.767 78.613 153.573 78.4592 153.353 78.3517C153.133 78.2443 152.893 78.1858 152.649 78.1802C152.438 78.2052 152.235 78.2733 152.051 78.3804C151.868 78.4875 151.708 78.6312 151.583 78.8028C151.204 79.335 150.931 79.9351 150.777 80.5707C150.467 81.6041 150.157 82.6811 150.297 83.7519C150.424 84.639 150.854 85.6008 150.414 86.3789C148.964 88.9282 147.963 91.7949 146.888 94.5278C146.61 95.1835 146.384 95.86 146.212 96.551C145.997 97.6648 145.959 98.8058 146.1 99.9314C146.356 102.042 146.761 104.132 147.312 106.185C147.538 107.118 147.805 108.105 148.338 108.874C148.149 109.917 148.103 110.981 148.202 112.036C148.214 112.28 148.278 112.519 148.388 112.737C148.565 112.987 148.781 113.209 149.026 113.394C149.358 113.704 149.621 114.083 149.796 114.504C149.97 114.924 150.053 115.378 150.039 115.834C150.054 116.686 150.219 117.529 150.526 118.324C151.266 120.543 152.01 122.763 152.658 125.013C152.798 125.43 152.876 125.865 152.887 126.305C152.887 126.927 152.593 127.55 152.729 128.172C152.833 128.454 152.918 128.742 152.983 129.035C152.988 129.261 152.959 129.486 152.897 129.704C152.494 131.462 151.328 135.518 151.53 137.314L151.93 137.174C151.759 139.552 151.028 141.88 150.761 144.258C150.586 145.99 150.605 147.736 150.817 149.463C150.933 150.235 150.999 151.014 151.015 151.794C151.015 152.495 150.904 153.186 150.876 153.883C150.862 154.819 150.917 155.756 151.04 156.684C151.162 158.141 151.393 159.586 151.731 161.008C152.376 163.423 151.942 165.938 152.013 168.441C152.097 170.186 152.079 171.935 151.961 173.679C151.896 174.417 151.793 175.151 151.772 175.892C151.707 178.09 152.354 180.278 152.125 182.463C152.016 183.487 151.756 184.642 152.398 185.448C152.602 185.7 152.878 185.881 153.095 186.12C153.213 186.232 153.3 186.372 153.347 186.528C153.394 186.684 153.4 186.849 153.365 187.008C153.281 187.253 153.055 187.434 153.002 187.692C152.943 188.097 153.386 188.377 153.77 188.508L153.879 188.539C153.871 188.674 153.891 188.809 153.939 188.936C153.986 189.062 154.06 189.177 154.155 189.274C154.395 189.458 154.681 189.572 154.982 189.603L159.941 190.568C161.047 190.783 162.249 190.985 163.288 190.609C163.328 190.759 163.408 190.896 163.52 191.004C163.759 191.188 164.045 191.302 164.344 191.334L169.303 192.299C170.567 192.545 171.956 192.772 173.084 192.143C173.409 191.969 173.683 191.713 173.88 191.399C174.038 191.103 174.13 190.775 174.149 190.439C174.168 190.103 174.113 189.767 173.988 189.454C173.894 189.134 173.7 188.852 173.437 188.648C173.085 188.454 172.684 188.367 172.284 188.399C171.944 188.424 171.603 188.372 171.286 188.246C171.189 188.195 171.104 188.123 171.038 188.035C171.286 187.723 171.525 187.412 171.751 187.101C171.537 187.051 171.441 186.755 171.388 186.538C170.75 183.307 171.646 180.001 171.776 176.702C171.842 175.05 171.713 173.396 171.392 171.774C171.271 171.152 171.125 170.56 171.038 169.944C170.583 166.729 171.801 163.463 171.413 160.239C171.23 158.732 171.875 157.157 172.104 155.657C172.306 154.325 172.176 152.968 172.045 151.611L171.02 141.028C170.88 139.599 170.735 138.136 170.127 136.835C169.824 136.107 169.68 135.323 169.706 134.535C170.945 133.822 172.086 132.841 173.486 132.838C173.756 131.811 172.981 128.571 172.529 127.612C170.764 123.833 170.066 119.639 170.511 115.488C170.676 113.997 170.084 112.494 170.282 111.006C170.312 110.658 170.409 110.318 170.567 110.007C170.647 109.853 170.765 109.721 170.909 109.625C171.053 109.529 171.219 109.471 171.392 109.456C171.305 108.563 171.19 107.663 171.038 106.77C171.548 106.247 171.967 105.642 172.278 104.98C172.922 103.626 173.208 102.132 173.583 100.682C174.264 98.126 175.306 95.6857 176.13 93.1769C176.954 90.6681 176.793 88.0162 177.385 85.4389C177.719 84.0191 178.585 82.7829 179.802 81.987C180.273 81.6757 180.809 81.4361 181.135 80.9754C181.38 80.5967 181.509 80.1541 181.507 79.7023C181.535 79.2133 181.452 78.7244 181.266 78.2717C181.08 77.819 180.795 77.4143 180.431 77.0877ZM161.49 185.993C161.583 185.865 161.673 185.738 161.757 185.604C161.428 185.585 161.013 185.392 160.973 185.062C160.963 184.732 160.999 184.402 161.081 184.082C161.174 183.509 161.14 182.923 160.979 182.367C160.864 181.981 160.694 181.61 160.57 181.224C160.448 180.793 160.352 180.356 160.282 179.914C159.978 178.333 159.505 176.789 158.871 175.31C158.252 173.875 158.732 172.31 158.738 170.744C158.738 170.006 158.627 169.253 158.813 168.537C158.921 168.114 159.123 167.722 159.237 167.292C159.491 166.305 159.172 165.269 158.859 164.301C160.083 161.394 160.247 158.076 160.498 154.913C160.639 153.145 160.779 151.381 160.92 149.622C160.982 148.834 161.053 148.015 161.465 147.343C162.197 149.591 162.634 151.926 162.764 154.287C162.777 154.97 162.856 155.65 162.999 156.317C163.195 157.055 163.576 157.724 163.83 158.44C164.394 160.015 164.335 161.736 164.589 163.389C164.691 164.058 164.846 164.718 164.946 165.387C165.373 168.341 164.682 171.332 163.994 174.236C163.573 176.017 163.641 177.987 163.545 179.814C163.455 181.567 163.362 183.319 163.405 185.075C163.405 185.61 163.439 186.158 163.433 186.702C163.265 186.682 163.095 186.673 162.925 186.674C162.585 186.699 162.244 186.647 161.927 186.522C161.731 186.395 161.578 186.21 161.49 185.993Z" fill="url(#paint1_linear_5_1253)"/>
<path d="M172.299 188.421C172.699 188.39 173.099 188.475 173.452 188.667C173.714 188.871 173.907 189.151 174.004 189.47C174.127 189.78 174.182 190.115 174.162 190.449C174.143 190.783 174.051 191.108 173.892 191.403C173.695 191.714 173.421 191.968 173.096 192.14C171.968 192.763 170.579 192.542 169.315 192.299L164.357 191.343C164.058 191.317 163.772 191.21 163.529 191.032C163.378 190.866 163.283 190.656 163.257 190.433C163.231 190.21 163.275 189.984 163.383 189.787C163.6 189.394 163.922 189.07 164.313 188.853C165.739 187.963 167.412 187.608 169.048 187.418C169.668 187.344 170.248 187.144 170.713 187.577C170.961 187.804 170.948 188.088 171.295 188.271C171.615 188.395 171.958 188.446 172.299 188.421Z" fill="#3F3D56"/>
<path d="M162.931 186.709C163.33 186.678 163.729 186.763 164.081 186.955C164.344 187.157 164.538 187.438 164.632 187.758C164.757 188.068 164.812 188.402 164.793 188.736C164.775 189.071 164.683 189.396 164.524 189.691C164.326 190.001 164.051 190.255 163.727 190.428C162.599 191.051 161.211 190.83 159.943 190.587L154.985 189.628C154.686 189.602 154.4 189.495 154.157 189.317C154.006 189.151 153.911 188.942 153.884 188.719C153.857 188.495 153.901 188.269 154.009 188.072C154.232 187.679 154.559 187.356 154.954 187.138C156.376 186.251 158.053 185.909 159.689 185.706C160.309 185.629 160.889 185.433 161.353 185.862C161.598 186.089 161.589 186.373 161.933 186.556C162.25 186.681 162.591 186.733 162.931 186.709Z" fill="#3F3D56"/>
<path d="M161.71 133.794C158.844 133.806 155.982 134.025 153.147 134.451C152.96 134.468 152.777 134.516 152.605 134.594C152.004 134.905 151.985 135.752 152.001 136.43C152.041 139.191 151.102 141.865 150.792 144.604C150.614 146.324 150.632 148.058 150.845 149.774C150.957 150.542 151.024 151.317 151.043 152.093C151.043 152.784 150.929 153.472 150.901 154.166C150.886 155.092 150.94 156.018 151.062 156.936C151.183 158.384 151.414 159.82 151.753 161.232C152.394 163.632 151.96 166.131 152.029 168.615C152.111 170.349 152.092 172.087 151.97 173.819C151.905 174.554 151.802 175.282 151.781 176.02C151.716 178.199 152.36 180.378 152.131 182.556C152.022 183.571 151.759 184.735 152.401 185.52C152.605 185.769 152.881 185.949 153.095 186.189C153.212 186.299 153.298 186.438 153.346 186.592C153.394 186.746 153.401 186.909 153.367 187.067C153.281 187.313 153.042 187.493 153.005 187.748C152.943 188.15 153.386 188.43 153.77 188.558C155.234 189.009 156.804 188.971 158.245 188.451C159.686 187.931 160.92 186.956 161.763 185.672C161.434 185.653 161.019 185.461 160.979 185.134C160.969 184.805 161.005 184.477 161.087 184.159C161.182 183.591 161.147 183.009 160.985 182.457C160.873 182.071 160.7 181.704 160.579 181.321C160.458 180.893 160.362 180.459 160.291 180.02C159.989 178.448 159.517 176.913 158.884 175.444C158.264 174.018 158.747 172.462 158.754 170.912C158.754 170.177 158.645 169.427 158.828 168.718C158.936 168.294 159.138 167.905 159.256 167.473C159.51 166.492 159.191 165.465 158.878 164.503C160.117 161.615 160.272 158.303 160.523 155.165L160.948 149.874C161.01 149.092 161.084 148.277 161.493 147.611C162.225 149.843 162.662 152.162 162.792 154.508C162.802 155.188 162.88 155.865 163.024 156.529C163.219 157.257 163.597 157.923 163.855 158.636C164.415 160.192 164.357 161.907 164.611 163.551C164.713 164.217 164.865 164.87 164.964 165.537C165.392 168.472 164.697 171.451 164.006 174.33C163.585 176.098 163.65 178.065 163.554 179.873C163.461 181.613 163.368 183.353 163.411 185.096C163.449 186.699 163.573 188.421 162.714 189.765C163.675 190.257 164.667 190.758 165.739 190.852C166.986 190.918 168.218 190.544 169.219 189.793C170.21 189.044 171.072 188.137 171.769 187.107C171.553 187.057 171.46 186.762 171.407 186.547C170.768 183.338 171.667 180.041 171.8 176.773C171.866 175.133 171.738 173.49 171.419 171.88C171.298 171.258 171.15 170.669 171.063 170.059C170.614 166.866 171.831 163.619 171.447 160.41C171.267 158.91 171.912 157.347 172.141 155.853C172.343 154.53 172.216 153.182 172.086 151.85L171.066 141.345C170.93 139.923 170.784 138.469 170.177 137.177C169.451 135.621 169.901 133.704 169.823 131.988C167.263 133.12 164.506 133.734 161.71 133.794Z" fill="#46455B"/>
<path d="M167.697 102.683C168.541 100.369 169.636 98.1562 170.964 96.0841C171.244 95.6773 171.492 95.2496 171.707 94.8048C172.16 93.7963 172.206 92.6571 172.445 91.5739C173.111 88.5422 175.287 85.94 175.566 82.8585C175.665 81.7349 176.266 80.7046 176.641 79.6432C176.892 78.9242 177.177 78.1647 177.785 77.7071C178.193 77.4339 178.677 77.2992 179.167 77.3227C179.656 77.3463 180.126 77.5268 180.506 77.8378C180.876 78.1604 181.168 78.5641 181.359 79.018C181.55 79.4719 181.634 79.9637 181.606 80.4556C181.607 80.9042 181.478 81.3434 181.234 81.7193C180.905 82.1769 180.372 82.4228 179.901 82.7247C178.686 83.5113 177.82 84.7373 177.481 86.1486C176.886 88.7103 177.047 91.3405 176.22 93.8337C175.392 96.3269 174.36 98.7548 173.669 101.304C173.282 102.745 173.006 104.23 172.358 105.575C171.711 106.919 170.61 108.133 169.163 108.479C169.072 107.553 168.833 106.648 168.457 105.799C168.023 104.815 167.332 103.682 167.697 102.683Z" fill="#A0616A"/>
<path d="M152.106 106.234C151.986 104.416 151.519 102.637 150.73 100.996C150.42 100.373 150.073 99.7508 150.036 99.038C150.055 98.388 150.201 97.7481 150.467 97.1549C151.168 95.0264 151.722 92.8517 152.125 90.6464L152.98 86.5065C153.363 86.1576 153.701 85.7624 153.987 85.33C154.585 84.4698 154.936 83.4607 155.001 82.4134C155.029 81.891 154.954 81.3681 154.779 80.8753C154.604 80.3826 154.332 79.9298 153.981 79.5436C153.824 79.3574 153.629 79.2072 153.409 79.103C153.19 78.9989 152.95 78.9432 152.707 78.9397C152.497 78.9647 152.293 79.0328 152.11 79.1399C151.927 79.247 151.767 79.3907 151.641 79.5622C151.269 80.0869 151.001 80.6787 150.851 81.3053C150.541 82.3325 150.231 83.4001 150.368 84.4647C150.492 85.3455 150.925 86.3011 150.482 87.073C149.029 89.6099 148.028 92.4548 146.949 95.1659C146.674 95.8176 146.449 96.4899 146.277 97.1767C146.059 98.2838 146.02 99.4186 146.159 100.538C146.413 102.64 146.817 104.72 147.368 106.764C147.678 108.046 148.065 109.44 149.137 110.209C150.02 108.79 150.913 107.399 152.106 106.234Z" fill="#A0616A"/>
<path d="M158.152 106.592C161.091 106.592 163.473 104.2 163.473 101.248C163.473 98.2964 161.091 95.9036 158.152 95.9036C155.213 95.9036 152.831 98.2964 152.831 101.248C152.831 104.2 155.213 106.592 158.152 106.592Z" fill="#A0616A"/>
<path d="M156.166 107.109C156.135 108.083 155.714 108.995 155.298 109.879C155.047 110.412 154.719 111.006 154.146 111.124C155.759 111.773 157.434 112.256 159.144 112.566C159.73 112.697 160.333 112.732 160.929 112.668C161.431 112.578 161.913 112.399 162.352 112.139C163.315 111.591 164.141 110.829 164.768 109.912C165.394 108.996 165.805 107.947 165.968 106.848C165.312 106.934 164.648 106.952 163.988 106.901C163.614 106.911 163.251 106.776 162.975 106.524C162.8 106.28 162.701 105.99 162.689 105.69C162.572 104.806 162.478 103.92 162.407 103.032C161.099 103.082 159.811 103.379 158.611 103.906C158.115 104.124 157.632 104.376 157.121 104.563C156.811 104.675 155.915 104.697 155.698 104.899C155.363 105.22 156.185 106.437 156.166 107.109Z" fill="#A0616A"/>
<path d="M158.834 110.097C158.704 109.405 158.36 108.772 157.852 108.286C157.344 107.801 156.696 107.488 156.002 107.392C155.444 107.327 154.855 107.392 154.338 107.184C153.454 106.801 153.082 105.684 152.227 105.245C151.372 104.806 150.262 105.214 149.63 105.948C148.998 106.683 148.731 107.682 148.539 108.616C148.241 109.911 148.144 111.244 148.251 112.569C148.266 112.812 148.33 113.049 148.44 113.266C148.618 113.515 148.832 113.735 149.075 113.92C149.408 114.226 149.67 114.602 149.845 115.019C150.02 115.437 150.103 115.888 150.089 116.341C150.1 117.194 150.263 118.037 150.572 118.831C151.313 121.035 152.057 123.242 152.701 125.477C152.842 125.89 152.919 126.323 152.931 126.759C152.915 127.382 152.621 128.004 152.773 128.611C152.874 128.891 152.958 129.177 153.024 129.467C153.029 129.692 152.999 129.917 152.937 130.133C152.531 131.883 151.366 135.91 151.567 137.694C154.21 136.717 158.199 136.138 161 135.826C161.771 135.737 162.546 135.691 163.322 135.689C165.181 135.689 167.13 136.041 168.866 135.356C170.474 134.734 171.81 133.234 173.539 133.227C173.809 132.209 173.034 128.991 172.585 128.039C170.822 124.287 170.127 120.119 170.576 115.996C170.738 114.514 170.149 113.02 170.35 111.542C170.379 111.195 170.475 110.858 170.632 110.549C170.714 110.395 170.832 110.264 170.976 110.168C171.121 110.071 171.287 110.013 171.46 109.998C171.254 107.68 170.802 105.39 170.112 103.169C169.861 102.378 169.408 101.463 168.584 101.41C167.84 101.36 167.291 102.032 166.755 102.558C166.202 103.086 165.541 103.486 164.818 103.732C164.522 103.797 164.246 103.933 164.013 104.127C163.703 104.454 163.703 104.986 163.446 105.372C162.999 106.063 161.859 106.129 161.586 106.901C161.529 107.128 161.488 107.359 161.465 107.592C161.339 108.046 161.085 108.454 160.734 108.768C160.22 109.363 159.567 109.819 158.834 110.097Z" fill="#2F2E41"/>
<path d="M161.868 95.1503C161.913 94.9742 161.909 94.7887 161.854 94.6152C161.799 94.4417 161.696 94.2873 161.558 94.1699C161.394 94.0928 161.227 94.0253 161.056 93.9675C160.823 93.8085 160.626 93.6029 160.476 93.3637C160.04 92.8698 159.444 92.5465 158.794 92.4509C158.144 92.3552 157.481 92.4933 156.922 92.8408C156.051 93.4197 155.595 94.4469 154.852 95.1846C154.47 95.5674 154.015 95.8663 153.631 96.2491C152.87 97.0627 152.373 98.0898 152.208 99.1937C152.049 100.292 152.004 101.404 152.075 102.512C152.066 102.847 152.114 103.182 152.217 103.502C152.329 103.763 152.481 104.005 152.67 104.217C153.615 105.457 154.881 106.411 156.33 106.975C157.786 107.492 159.488 107.43 160.789 106.592C160.92 106.52 161.027 106.412 161.099 106.281C161.161 106.087 161.161 105.878 161.099 105.684C160.944 104.908 161.018 104.104 161.313 103.371C161.571 102.86 161.801 102.335 162.001 101.799C162.128 101.184 162.145 100.552 162.051 99.9314C161.899 98.3439 161.623 96.744 161.868 95.1503Z" fill="#46455B"/>
<path d="M251.904 178.028C251.904 208.65 271.031 233.433 294.67 233.433L251.904 178.028Z" fill="#46455B"/>
<path d="M294.67 233.433C294.67 202.462 316.013 177.405 342.395 177.405L294.67 233.433Z" fill="#38B5FC"/>
<path d="M267.399 180.785C267.399 209.876 279.594 233.417 294.67 233.417L267.399 180.785Z" fill="#38B5FC"/>
<path d="M294.67 233.433C294.67 193.862 319.342 161.842 349.833 161.842L294.67 233.433Z" fill="#46455B"/>
<path opacity="0.1" d="M292.814 244C298.686 244 303.447 243.192 303.447 242.195C303.447 241.198 298.686 240.389 292.814 240.389C286.942 240.389 282.181 241.198 282.181 242.195C282.181 243.192 286.942 244 292.814 244Z" fill="#38B5FC"/>
<path d="M285.671 233.806C285.671 233.806 291.736 233.619 293.564 232.312C295.393 231.005 302.895 229.442 303.348 231.54C303.8 233.638 312.462 241.967 305.616 242.023C298.77 242.079 289.706 240.953 287.88 239.845C286.055 238.737 285.671 233.806 285.671 233.806Z" fill="#A8A8A8"/>
<path opacity="0.2" d="M305.727 241.292C298.882 241.348 289.817 240.221 287.992 239.113C286.603 238.26 286.049 235.213 285.866 233.803H285.661C285.661 233.803 286.045 238.715 287.871 239.832C289.696 240.95 298.758 242.076 305.606 242.011C307.58 241.995 308.265 241.289 308.228 240.243C307.962 240.903 307.209 241.28 305.727 241.292Z" fill="black"/>
<path opacity="0.1" d="M252.735 11.3923C253.003 11.0088 253.151 10.5535 253.159 10.085C253.159 7.24623 247.401 4.9491 240.298 4.9491C233.195 4.9491 227.437 7.24623 227.437 10.085C227.443 10.6129 227.62 11.1244 227.942 11.5417C220.034 12.4288 214.707 14.0909 214.707 15.999C214.707 18.8346 226.483 21.1348 241.048 21.1348C255.614 21.1348 267.39 18.8346 267.39 15.999C267.399 13.9913 261.412 12.2327 252.735 11.3923Z" fill="#38B5FC"/>
<path opacity="0.1" d="M94.9945 16.995C95.2626 16.6115 95.4105 16.1563 95.419 15.6877C95.419 12.849 89.6611 10.5519 82.5581 10.5519C75.4552 10.5519 69.6972 12.849 69.6972 15.6877C69.7101 16.2185 69.8963 16.7303 70.2271 17.1444C62.3184 18.0315 56.9912 19.6937 56.9912 21.6017C56.9912 24.4374 68.783 26.7376 83.3329 26.7376C97.8828 26.7376 109.675 24.4374 109.675 21.6017C109.659 19.5941 103.672 17.8354 94.9945 16.995Z" fill="#38B5FC"/>
<path opacity="0.1" d="M185.405 12.6809C186.127 12.2607 187.104 12.6622 187.599 13.3408C188.095 14.0193 188.219 14.8971 188.359 15.7126C188.634 17.5553 188.836 19.6688 187.599 21.0539C189.62 14.9002 195.431 10.1877 201.855 9.49979" stroke="#38B5FC" stroke-width="3" stroke-miterlimit="10"/>
<path opacity="0.1" d="M82.0435 44.1124C82.5083 43.8416 83.1343 44.1124 83.4535 44.5357C83.7378 44.9965 83.9058 45.5201 83.9432 46.0609C84.1198 47.2468 84.2531 48.6039 83.4566 49.4848C84.1363 47.5087 85.3552 45.7643 86.9744 44.4506C88.5936 43.1369 90.5479 42.3068 92.6142 42.0549" stroke="#38B5FC" stroke-width="3" stroke-miterlimit="10"/>
<path opacity="0.1" d="M221.499 53.4503C221.964 53.1795 222.59 53.4503 222.909 53.8736C223.193 54.3345 223.361 54.858 223.399 55.3988C223.575 56.5847 223.709 57.9418 222.912 58.8227C223.592 56.8467 224.811 55.1023 226.43 53.7885C228.049 52.4748 230.003 51.6447 232.07 51.3928" stroke="#38B5FC" stroke-width="3" stroke-miterlimit="10"/>
<path opacity="0.1" d="M210.067 158.107V150.543L213.538 154.029L214.406 153.126L209.447 148.146L204.489 153.126L205.356 153.995L208.827 150.543V158.107H210.067Z" fill="#38B5FC"/>
<path opacity="0.1" d="M135.071 183.008V175.444L138.542 178.93L139.41 178.028L134.451 173.047L129.493 178.028L130.36 178.896L133.831 175.444V183.008H135.071Z" fill="#38B5FC"/>
<path opacity="0.1" d="M190.234 205.108V197.544L193.704 201.03L194.572 200.127L189.614 195.147L184.655 200.127L185.523 200.996L188.994 197.544V205.108H190.234Z" fill="#38B5FC"/>
</g>
<defs>
<linearGradient id="paint0_linear_5_1253" x1="115.612" y1="84.3993" x2="115.612" y2="1.43861e-06" gradientUnits="userSpaceOnUse">
<stop stop-color="#808080" stop-opacity="0.25"/>
<stop offset="0.54" stop-color="#808080" stop-opacity="0.12"/>
<stop offset="1" stop-color="#808080" stop-opacity="0.1"/>
</linearGradient>
<linearGradient id="paint1_linear_5_1253" x1="24023.7" y1="52659.5" x2="28596.5" y2="52189" gradientUnits="userSpaceOnUse">
<stop stop-color="#808080" stop-opacity="0.25"/>
<stop offset="0.54" stop-color="#808080" stop-opacity="0.12"/>
<stop offset="1" stop-color="#808080" stop-opacity="0.1"/>
</linearGradient>
<clipPath id="clip0_5_1253">
<rect width="353" height="244" fill="white"/>
</clipPath>
</defs>
</svg>