<svg xmlns="http://www.w3.org/2000/svg" width="10" height="26" viewBox="0 0 10 26" fill="none">
<path d="M2.5 0.5V3H3.6375C3.3125 5.2375 1.25 7.375 0 9.25V15.2125C0.389556 15.5649 0.700926 15.995 0.914029 16.4751C1.12713 16.9553 1.23723 17.4747 1.23723 18C1.23723 18.5253 1.12713 19.0447 0.914029 19.5249C0.700926 20.005 0.389556 20.4351 0 20.7875V23C0 23.663 0.263393 24.2989 0.732233 24.7678C1.20107 25.2366 1.83696 25.5 2.5 25.5H7.5C8.8875 25.5 10 24.3875 10 23V20.7875C9.61044 20.4351 9.29907 20.005 9.08597 19.5249C8.87287 19.0447 8.76276 18.5253 8.76276 18C8.76276 17.4747 8.87287 16.9553 9.08597 16.4751C9.29907 15.995 9.61044 15.5649 10 15.2125V9.25C8.75 7.375 6.6875 5.2375 6.3625 3H7.5V0.5H2.5ZM5 6.125C5.3 6.75 6.925 8.625 7.375 9.1375L7.5 9.25V14.25C6.6875 15.3375 6.25 16.65 6.25 18C6.25 19.35 6.6875 20.6625 7.5 21.75V23H2.5V21.75C3.3125 20.6625 3.75 19.35 3.75 18C3.75 16.65 3.3125 15.3375 2.5 14.25V9.25L2.625 9.1375C3.075 8.625 4.7 6.75 5 6.125Z" fill="black"/>
</svg>