<svg xmlns="http://www.w3.org/2000/svg" width="16" height="31" viewBox="0 0 16 31" fill="none">
<path d="M15.4625 14.0417H15.5V27.1667C15.5 27.9402 15.1839 28.6821 14.6213 29.2291C14.0587 29.776 13.2956 30.0833 12.5 30.0833H3.5C2.70435 30.0833 1.94129 29.776 1.37868 29.2291C0.81607 28.6821 0.5 27.9402 0.5 27.1667V14.0417H0.5375C0.668859 12.908 1.13927 11.8366 1.8905 10.9602L3.5555 9.02063C4.00502 8.49572 4.25081 7.83407 4.25 7.15104V2.375C4.25 1.98823 4.40804 1.61729 4.68934 1.3438C4.97064 1.07031 5.35217 0.916668 5.75 0.916668H10.25C10.6478 0.916668 11.0294 1.07031 11.3107 1.3438C11.592 1.61729 11.75 1.98823 11.75 2.375V7.1525C11.7503 7.83471 11.9966 8.49523 12.446 9.01917L14.1095 10.9602C14.8607 11.8366 15.3311 12.908 15.4625 14.0417ZM12.4235 14.0417C12.3178 13.5956 12.1056 13.1799 11.804 12.8283L10.1405 10.8873C9.2419 9.83883 8.74986 8.51724 8.75 7.1525V3.83333H7.25V7.1525C7.24979 8.51674 6.75777 9.83776 5.8595 10.8858L4.1945 12.8283C3.894 13.1802 3.68281 13.5958 3.578 14.0417H12.425H12.4235ZM12.5 24.25H3.5V27.1667H12.5V24.25ZM3.5 16.9583V21.3333H12.5V16.9583H3.5Z" fill="#38B5FC"/>
</svg>