<svg xmlns="http://www.w3.org/2000/svg" width="24" height="24" viewBox="0 0 24 24" fill="none">
<path fill-rule="evenodd" clip-rule="evenodd" d="M12 16.375C13.3456 16.375 14.5 15.24 14.5 13.7613C14.5 12.4613 13.7463 10.8781 12.8313 9.4875C12.5686 9.08986 12.2914 8.70209 12 8.325C11.7087 8.70212 11.4314 9.08989 11.1688 9.4875C10.2544 10.8787 9.5 12.4606 9.5 13.7619C9.5 15.24 10.6544 16.375 12 16.375ZM11.1856 7.3375C10.0825 8.72938 8.25 11.3981 8.25 13.7613C8.25 15.895 9.92875 17.625 12 17.625C14.0712 17.625 15.75 15.895 15.75 13.7613C15.75 11.3988 13.9175 8.73 12.8144 7.3375C12.3394 6.7375 12 6.375 12 6.375C12 6.375 11.66 6.7375 11.1856 7.3375Z" fill="black"/>
<path fill-rule="evenodd" clip-rule="evenodd" d="M6.28757 3.79187C4.32503 5.15631 2.91612 7.17859 2.31611 9.4923C1.71611 11.806 1.9647 14.2581 3.01684 16.4043C4.06898 18.5506 5.85508 20.2489 8.05153 21.1917C10.248 22.1345 12.7095 22.2594 14.9901 21.5438L15.3638 22.7363C12.7983 23.541 10.0293 23.4003 7.55853 22.3396C5.08777 21.2789 3.07864 19.3683 1.89508 16.954C0.711528 14.5396 0.431839 11.7812 1.10668 9.17847C1.78153 6.5757 3.36627 4.30071 5.57382 2.76562L6.2882 3.79187H6.28757Z" fill="black"/>
<path fill-rule="evenodd" clip-rule="evenodd" d="M17.7126 20.2081C19.6741 18.8433 21.082 16.8211 21.6813 14.5079C22.2807 12.1947 22.0319 9.74331 20.9799 7.59769C19.928 5.45207 18.1425 3.75406 15.9468 2.81116C13.7511 1.86826 11.2903 1.7428 9.0101 2.4575L8.63635 1.26437C11.2017 0.460387 13.9701 0.60162 16.4403 1.6625C18.9104 2.72337 20.9191 4.63375 22.1024 7.04767C23.2857 9.46159 23.5655 12.2195 22.891 14.8218C22.2166 17.4242 20.6325 19.699 18.4257 21.2344L17.7114 20.2081H17.7126Z" fill="black"/>
<path fill-rule="evenodd" clip-rule="evenodd" d="M5.75 3.25H1.375V2H7V7.625H5.75V3.25Z" fill="black"/>
<path fill-rule="evenodd" clip-rule="evenodd" d="M18.25 20.75H22.625V22H17V16.375H18.25V20.75Z" fill="black"/>
</svg>