<svg xmlns="http://www.w3.org/2000/svg" width="32" height="26" viewBox="0 0 32 26" fill="none">
<path d="M31.71 8.38L27.62 4.29C27.4338 4.10526 27.1824 4.0011 26.92 4H21.92V2.05C21.9336 1.52455 21.7397 1.01489 21.3804 0.631254C21.0211 0.247618 20.5252 0.0208501 20 0H11.84C11.5834 0.0100994 11.3313 0.0715945 11.0989 0.180844C10.8664 0.290094 10.6582 0.444878 10.4867 0.63603C10.3151 0.827182 10.1836 1.05082 10.1 1.29369C10.0164 1.53657 9.98243 1.79375 10 2.05V4H5.08002C4.94841 3.99924 4.81795 4.02446 4.69611 4.07423C4.57427 4.12399 4.46346 4.19732 4.37002 4.29L0.290017 8.38C0.197335 8.47344 0.12401 8.58426 0.0742455 8.70609C0.0244809 8.82793 -0.000744179 8.95839 1.67143e-05 9.09V24C1.67143e-05 24.5304 0.21073 25.0391 0.585803 25.4142C0.960876 25.7893 1.46958 26 2.00002 26H30C30.5305 26 31.0392 25.7893 31.4142 25.4142C31.7893 25.0391 32 24.5304 32 24V9.08C31.9989 8.81766 31.8948 8.56626 31.71 8.38ZM12 2H20V4H12V2ZM30 13H20V14.93H30V24H2.00002V14.93H12V13H2.00002V9.5L5.50002 6H26.5L30 9.5V13Z" fill="black"/>
</svg>