<svg xmlns="http://www.w3.org/2000/svg" width="30" height="24" viewBox="0 0 30 24" fill="none">
<path d="M14.9973 6.80263V20.4184C14.9972 20.6112 14.9535 20.8014 14.8695 20.9744C14.7855 21.1475 14.6634 21.2988 14.5126 21.4167C14.3618 21.5347 14.1863 21.6162 13.9996 21.6549C13.8129 21.6936 13.6198 21.6886 13.4353 21.6403L12.7551 21.4617L12.6576 21.4358L4.02699 19.1701C3.43615 18.9968 2.91853 18.6308 2.55464 18.1291C2.19075 17.6275 2.00099 17.0183 2.01487 16.3963V2.84308C2.0149 2.65295 2.05739 2.46527 2.13917 2.29406C2.22095 2.12286 2.3399 1.97253 2.48716 1.85431C2.63442 1.7361 2.80617 1.65303 2.98961 1.61132C3.17304 1.56961 3.36343 1.57033 3.54655 1.61343L14.0834 4.09859C14.6907 4.24176 15.3224 4.24176 15.9296 4.09859L26.4688 1.61343C26.652 1.57033 26.8424 1.56961 27.0258 1.61132C27.2092 1.65303 27.381 1.7361 27.5282 1.85431C27.6755 1.97253 27.7944 2.12286 27.8762 2.29406C27.958 2.46527 28.0005 2.65295 28.0005 2.84308V17.6651C28.0005 17.9446 27.9086 18.2163 27.7395 18.4374C27.5703 18.6585 27.3334 18.8166 27.0658 18.8869L15.4272 21.9427C15.1579 22.0134 14.876 22.0188 14.6043 21.9583L13.4353 21.6403" stroke="black" stroke-width="2.069" stroke-linecap="round" stroke-linejoin="round"/>
</svg>